<svg width="3" height="15" viewBox="0 0 3 15" fill="none" xmlns="http://www.w3.org/2000/svg">
<path d="M2.53902 7.69872C2.53902 7.92243 2.47268 8.14111 2.3484 8.32712C2.22411 8.51312 2.04746 8.6581 1.84078 8.7437C1.6341 8.82931 1.40668 8.85171 1.18727 8.80807C0.967866 8.76443 0.766326 8.6567 0.608142 8.49852C0.449957 8.34033 0.342232 8.13879 0.298589 7.91938C0.254946 7.69998 0.277346 7.47255 0.362954 7.26588C0.448563 7.0592 0.593537 6.88255 0.779543 6.75826C0.965548 6.63398 1.18423 6.56764 1.40794 6.56764C1.70792 6.56764 1.99561 6.68681 2.20773 6.89893C2.41985 7.11105 2.53902 7.39874 2.53902 7.69872ZM1.40794 3.04872C1.63164 3.04872 1.85033 2.98239 2.03633 2.8581C2.22234 2.73382 2.36731 2.55717 2.45292 2.35049C2.53853 2.14381 2.56093 1.91639 2.51728 1.69698C2.47364 1.47757 2.36592 1.27603 2.20773 1.11785C2.04955 0.959662 1.84801 0.851937 1.6286 0.808294C1.40919 0.764651 1.18177 0.78705 0.975091 0.872659C0.768413 0.958268 0.591762 1.10324 0.467477 1.28925C0.343193 1.47525 0.276856 1.69394 0.276856 1.91764C0.276856 2.21762 0.396023 2.50532 0.608142 2.71744C0.820261 2.92956 1.10796 3.04872 1.40794 3.04872ZM1.40794 12.3487C1.18423 12.3487 0.965548 12.4151 0.779543 12.5393C0.593537 12.6636 0.448563 12.8403 0.362954 13.047C0.277346 13.2536 0.254946 13.4811 0.298589 13.7005C0.342232 13.9199 0.449957 14.1214 0.608142 14.2796C0.766326 14.4378 0.967866 14.5455 1.18727 14.5892C1.40668 14.6328 1.6341 14.6104 1.84078 14.5248C2.04746 14.4392 2.22411 14.2942 2.3484 14.1082C2.47268 13.9222 2.53902 13.7035 2.53902 13.4798C2.53902 13.1798 2.41985 12.8921 2.20773 12.68C1.99561 12.4679 1.70792 12.3487 1.40794 12.3487Z" fill="#ffffff"/>
</svg>
