<svg width="31" height="30" viewBox="0 0 31 30" fill="none" xmlns="http://www.w3.org/2000/svg">
<path d="M25.8821 20.7352C25.2188 19.5938 24.2333 16.3746 24.2333 12.1875C24.2333 9.76326 23.2702 7.4383 21.556 5.7241C19.8418 4.0099 17.5169 3.04688 15.0926 3.04688C12.6684 3.04688 10.3434 4.0099 8.62924 5.7241C6.91504 7.4383 5.95201 9.76326 5.95201 12.1875C5.95201 16.3758 4.96529 19.5938 4.30201 20.7352C4.15648 20.9844 4.07926 21.2675 4.07814 21.5561C4.07702 21.8447 4.15203 22.1285 4.29562 22.3788C4.43921 22.6291 4.64629 22.8372 4.89595 22.9819C5.14562 23.1266 5.42905 23.2029 5.71764 23.2031H10.6958C10.8665 24.2455 11.4023 25.1931 12.2072 25.877C13.0122 26.5608 14.0341 26.9362 15.0903 26.9362C16.1465 26.9362 17.1684 26.5608 17.9733 25.877C18.7783 25.1931 19.314 24.2455 19.4848 23.2031H24.4676C24.756 23.2025 25.0392 23.1259 25.2885 22.981C25.5378 22.8361 25.7446 22.628 25.8879 22.3778C26.0312 22.1275 26.106 21.8439 26.1048 21.5555C26.1036 21.2672 26.0263 20.9842 25.8809 20.7352H25.8821ZM15.0926 25.5469C14.407 25.5467 13.7414 25.3152 13.2036 24.8899C12.6658 24.4646 12.2872 23.8703 12.129 23.2031H18.0563C17.8981 23.8703 17.5194 24.4646 16.9816 24.8899C16.4438 25.3152 15.7783 25.5467 15.0926 25.5469ZM24.668 21.6797C24.6487 21.7156 24.6199 21.7455 24.5848 21.7662C24.5497 21.7868 24.5096 21.7974 24.4688 21.7969H5.71764C5.67688 21.7974 5.63676 21.7868 5.60163 21.7662C5.5665 21.7455 5.53772 21.7156 5.51842 21.6797C5.49785 21.6441 5.48702 21.6036 5.48702 21.5625C5.48702 21.5214 5.49785 21.4809 5.51842 21.4453C6.40553 19.9219 7.35826 16.3699 7.35826 12.1875C7.35826 10.1362 8.17313 8.16895 9.62361 6.71847C11.0741 5.26799 13.0414 4.45312 15.0926 4.45312C17.1439 4.45312 19.1112 5.26799 20.5617 6.71847C22.0121 8.16895 22.827 10.1362 22.827 12.1875C22.827 16.3687 23.7809 19.916 24.668 21.4453C24.6886 21.4809 24.6994 21.5214 24.6994 21.5625C24.6994 21.6036 24.6886 21.6441 24.668 21.6797Z" fill="#1A212B"/>
</svg>
