<svg width="32" height="33" viewBox="0 0 32 33" fill="none" xmlns="http://www.w3.org/2000/svg">
<rect y="0.5" width="32" height="32" rx="16" fill="#F87631"/>
<path d="M21.1046 15.4666H19.2697C18.8261 15.4666 18.4833 15.8384 18.4833 16.2722L13.8456 16.2929C13.8456 15.8384 13.4827 15.4872 13.0593 15.4872H11.2243C10.5388 15.4872 9.97418 16.0657 9.97418 16.768V21.0854C9.97418 21.7878 10.5388 22.3662 11.2243 22.3662H21.1046C21.7902 22.3662 22.3548 21.7878 22.3548 21.0854V16.768C22.375 16.045 21.8104 15.4666 21.1046 15.4666ZM20.2376 18.2554V19.9906C20.2376 20.2178 20.0561 20.4037 19.8343 20.4037C19.6125 20.4037 19.431 20.2178 19.431 19.9906V18.2554C19.431 18.0281 19.6125 17.8422 19.8343 17.8422C20.0561 17.8422 20.2376 18.0281 20.2376 18.2554ZM17.2332 20.5277C16.9307 20.8376 16.5476 20.9822 16.1645 20.9822C15.7814 20.9822 15.3983 20.8376 15.0958 20.5277C14.9345 20.3624 14.9345 20.1145 15.0958 19.9493C15.2571 19.784 15.4991 19.784 15.6604 19.9493C15.9427 20.2178 16.3661 20.2178 16.6484 19.9493C16.8097 19.784 17.0517 19.784 17.213 19.9493C17.3743 20.1145 17.3945 20.3624 17.2332 20.5277ZM12.8979 18.2554V19.9906C12.8979 20.2178 12.7165 20.4037 12.4947 20.4037C12.2729 20.4037 12.0914 20.2178 12.0914 19.9906V18.2554C12.0914 18.0281 12.2729 17.8422 12.4947 17.8422C12.7165 17.8422 12.8979 18.0281 12.8979 18.2554Z" fill="white" fill-opacity="0.8"/>
<path d="M24.5729 17.0365H24.3914V16.7473C24.3914 14.8882 22.9195 13.4008 21.1249 13.4008H16.5678V12.1407C17.3139 11.9548 17.8785 11.2524 17.8785 10.4261C17.8785 9.45521 17.1123 8.67023 16.1646 8.67023C15.2169 8.67023 14.4506 9.45521 14.4506 10.4261C14.4506 11.2524 15.0152 11.9548 15.7613 12.1407V13.4008H11.2244C9.40967 13.4008 7.95787 14.9088 7.95787 16.7473V17.0365H7.75623C7.23197 17.0365 6.80853 17.4703 6.80853 18.0074V20.1971C6.80853 20.7342 7.23197 21.1681 7.75623 21.1681H7.95787C7.9982 22.9653 9.45 24.4319 11.2244 24.4319H21.1047C22.8791 24.4319 24.3309 22.9859 24.3713 21.1681H24.5729C25.0971 21.1681 25.5206 20.7342 25.5206 20.1971V18.0281C25.5206 17.491 25.0971 17.0365 24.5729 17.0365ZM24.714 20.2178C24.714 20.3004 24.6535 20.3624 24.5729 20.3624H24.3914V17.8835H24.5729C24.6535 17.8835 24.714 17.9455 24.714 18.0281V20.2178ZM21.1047 23.6263H11.2244C9.85328 23.6263 8.76443 22.4901 8.76443 21.0854V20.7756V17.4703V16.768C8.76443 15.3839 9.87344 14.2478 11.2244 14.2478H16.1646H21.1047C22.4557 14.2478 23.5647 15.3839 23.5647 16.768V17.4703V20.7756V21.0854C23.5849 22.4901 22.4758 23.6263 21.1047 23.6263ZM7.61509 20.2178V18.0281C7.61509 17.9455 7.67558 17.8835 7.75623 17.8835H7.95787V20.3624H7.75623C7.67558 20.3624 7.61509 20.3004 7.61509 20.2178ZM16.1646 9.49653C16.6687 9.49653 17.0719 9.90968 17.0719 10.4261C17.0719 10.9426 16.6687 11.3557 16.1646 11.3557C15.6605 11.3557 15.2572 10.9426 15.2572 10.4261C15.2572 9.90968 15.6605 9.49653 16.1646 9.49653Z" fill="white" fill-opacity="0.8"/>
</svg>
