<svg viewBox="0 0 25 25" fill="none" xmlns="http://www.w3.org/2000/svg">
<path d="M24.1894 22.551C24.3009 22.6625 24.3893 22.7949 24.4496 22.9405C24.51 23.0862 24.541 23.2423 24.541 23.4C24.541 23.5576 24.51 23.7138 24.4496 23.8594C24.3893 24.0051 24.3009 24.1375 24.1894 24.2489C24.0779 24.3604 23.9455 24.4489 23.7999 24.5092C23.6542 24.5695 23.4981 24.6006 23.3404 24.6006C23.1827 24.6006 23.0266 24.5695 22.881 24.5092C22.7353 24.4489 22.6029 24.3604 22.4915 24.2489L12.541 14.297L2.59057 24.2489C2.36541 24.4741 2.06003 24.6006 1.74162 24.6006C1.4232 24.6006 1.11782 24.4741 0.892663 24.2489C0.667507 24.0238 0.541016 23.7184 0.541016 23.4C0.541016 23.0816 0.667507 22.7762 0.892663 22.551L10.8446 12.6006L0.892663 2.65014C0.667507 2.42498 0.541016 2.11961 0.541016 1.80119C0.541016 1.48277 0.667507 1.17739 0.892663 0.952234C1.11782 0.727077 1.4232 0.600586 1.74162 0.600586C2.06003 0.600586 2.36541 0.727077 2.59057 0.952234L12.541 10.9042L22.4915 0.952234C22.7166 0.727077 23.022 0.600586 23.3404 0.600586C23.6588 0.600586 23.9642 0.727077 24.1894 0.952234C24.4145 1.17739 24.541 1.48277 24.541 1.80119C24.541 2.11961 24.4145 2.42498 24.1894 2.65014L14.2374 12.6006L24.1894 22.551Z" fill="#1A212B"/>
</svg>
