<svg width="30" height="30" viewBox="0 0 30 30" fill="none" xmlns="http://www.w3.org/2000/svg">
<path d="M26.9531 24.375C26.9531 24.5615 26.879 24.7403 26.7472 24.8722C26.6153 25.004 26.4365 25.0781 26.25 25.0781H3.75C3.56352 25.0781 3.38468 25.004 3.25282 24.8722C3.12095 24.7403 3.04688 24.5615 3.04688 24.375V5.625C3.04688 5.43852 3.12095 5.25968 3.25282 5.12782C3.38468 4.99595 3.56352 4.92188 3.75 4.92188C3.93648 4.92188 4.11532 4.99595 4.24718 5.12782C4.37905 5.25968 4.45312 5.43852 4.45312 5.625V17.2008L10.7871 11.6578C10.9085 11.5518 11.0626 11.4906 11.2237 11.4847C11.3847 11.4787 11.543 11.5282 11.6719 11.625L18.716 16.9078L25.7871 10.7203C25.9287 10.6113 26.1064 10.5602 26.2843 10.5775C26.4621 10.5948 26.6267 10.6792 26.7446 10.8135C26.8625 10.9478 26.9248 11.1219 26.9189 11.3005C26.913 11.4791 26.8394 11.6488 26.7129 11.775L19.2129 18.3375C19.0915 18.4435 18.9374 18.5047 18.7763 18.5107C18.6153 18.5166 18.457 18.4671 18.3281 18.3703L11.284 13.0922L4.45312 19.0688V23.6719H26.25C26.4365 23.6719 26.6153 23.746 26.7472 23.8778C26.879 24.0097 26.9531 24.1885 26.9531 24.375Z" fill="#1A212B"/>
</svg>
