<svg width="16" height="16" viewBox="0 0 16 16" fill="none" xmlns="http://www.w3.org/2000/svg">
<path d="M5.66804 7.62074C5.48207 7.62074 5.32301 7.55467 5.19087 7.42253C5.06362 7.29039 5 7.12889 5 6.93802C5 6.75694 5.06362 6.60032 5.19087 6.46818C5.32301 6.33604 5.48207 6.26997 5.66804 6.26997C5.85891 6.26997 6.02042 6.33604 6.15256 6.46818C6.2847 6.60032 6.35077 6.75694 6.35077 6.93802C6.35077 7.12889 6.2847 7.29039 6.15256 7.42253C6.02042 7.55467 5.85891 7.62074 5.66804 7.62074Z" fill="#111111"/>
<path d="M8.49266 7.62074C8.30668 7.62074 8.14763 7.55467 8.01549 7.42253C7.88824 7.29039 7.82462 7.12889 7.82462 6.93802C7.82462 6.75694 7.88824 6.60032 8.01549 6.46818C8.14763 6.33604 8.30668 6.26997 8.49266 6.26997C8.68353 6.26997 8.84503 6.33604 8.97717 6.46818C9.10931 6.60032 9.17538 6.75694 9.17538 6.93802C9.17538 7.12889 9.10931 7.29039 8.97717 7.42253C8.84503 7.55467 8.68353 7.62074 8.49266 7.62074Z" fill="#111111"/>
<path d="M11.3173 7.62074C11.1313 7.62074 10.9722 7.55467 10.8401 7.42253C10.7129 7.29039 10.6492 7.12889 10.6492 6.93802C10.6492 6.75694 10.7129 6.60032 10.8401 6.46818C10.9722 6.33604 11.1313 6.26997 11.3173 6.26997C11.5081 6.26997 11.6696 6.33604 11.8018 6.46818C11.9339 6.60032 12 6.75694 12 6.93802C12 7.12889 11.9339 7.29039 11.8018 7.42253C11.6696 7.55467 11.5081 7.62074 11.3173 7.62074Z" fill="#111111"/>
<path d="M9.55556 13.1283C12.2441 13.1283 13.5888 13.1283 14.4237 12.2399C15.2593 11.3522 15.2593 9.9226 15.2593 7.06413C15.2593 4.20565 15.2593 2.77603 14.4237 1.88839C13.5888 1 12.2441 1 9.55556 1H6.7037C4.01512 1 2.67047 1 1.83559 1.88839C1 2.77603 1 4.20565 1 7.06413C1 9.9226 1 11.3522 1.83559 12.2399C2.30116 12.7356 2.925 12.9547 3.85185 13.0509" stroke="#111111" stroke-linecap="round" stroke-linejoin="round"/>
<path d="M9.5556 13.1282C8.67438 13.1282 7.70332 13.5072 6.81711 13.9962C5.39261 14.7822 4.68036 15.1756 4.32958 14.9247C3.9788 14.6746 4.04511 13.8976 4.17843 12.3444L4.20838 11.9912" stroke="#111111" stroke-linecap="round"/>
</svg>
