<svg viewBox="0 0 23 25" fill="red" xmlns="http://www.w3.org/2000/svg">
<path d="M21.346 4.29289H16.7306V3.36982C16.7306 2.63537 16.4389 1.93101 15.9195 1.41167C15.4002 0.892343 14.6958 0.600586 13.9614 0.600586H8.42293C7.68848 0.600586 6.98412 0.892343 6.46478 1.41167C5.94545 1.93101 5.6537 2.63537 5.6537 3.36982V4.29289H1.03831C0.793496 4.29289 0.558708 4.39015 0.385597 4.56326C0.212487 4.73637 0.115234 4.97116 0.115234 5.21597C0.115234 5.46079 0.212487 5.69557 0.385597 5.86868C0.558708 6.04179 0.793496 6.13905 1.03831 6.13905H1.96139V22.7544C1.96139 23.2441 2.15589 23.7136 2.50211 24.0599C2.84834 24.4061 3.31791 24.6006 3.80754 24.6006H18.5768C19.0664 24.6006 19.536 24.4061 19.8822 24.0599C20.2284 23.7136 20.4229 23.2441 20.4229 22.7544V6.13905H21.346C21.5908 6.13905 21.8256 6.04179 21.9987 5.86868C22.1718 5.69557 22.2691 5.46079 22.2691 5.21597C22.2691 4.97116 22.1718 4.73637 21.9987 4.56326C21.8256 4.39015 21.5908 4.29289 21.346 4.29289ZM7.49985 3.36982C7.49985 3.125 7.5971 2.89021 7.77021 2.7171C7.94332 2.54399 8.17811 2.44674 8.42293 2.44674H13.9614C14.2062 2.44674 14.441 2.54399 14.6141 2.7171C14.7872 2.89021 14.8845 3.125 14.8845 3.36982V4.29289H7.49985V3.36982ZM18.5768 22.7544H3.80754V6.13905H18.5768V22.7544ZM9.346 10.7544V18.139C9.346 18.3839 9.24875 18.6187 9.07564 18.7918C8.90253 18.9649 8.66774 19.0621 8.42293 19.0621C8.17811 19.0621 7.94332 18.9649 7.77021 18.7918C7.5971 18.6187 7.49985 18.3839 7.49985 18.139V10.7544C7.49985 10.5096 7.5971 10.2748 7.77021 10.1017C7.94332 9.92861 8.17811 9.83136 8.42293 9.83136C8.66774 9.83136 8.90253 9.92861 9.07564 10.1017C9.24875 10.2748 9.346 10.5096 9.346 10.7544ZM14.8845 10.7544V18.139C14.8845 18.3839 14.7872 18.6187 14.6141 18.7918C14.441 18.9649 14.2062 19.0621 13.9614 19.0621C13.7166 19.0621 13.4818 18.9649 13.3087 18.7918C13.1356 18.6187 13.0383 18.3839 13.0383 18.139V10.7544C13.0383 10.5096 13.1356 10.2748 13.3087 10.1017C13.4818 9.92861 13.7166 9.83136 13.9614 9.83136C14.2062 9.83136 14.441 9.92861 14.6141 10.1017C14.7872 10.2748 14.8845 10.5096 14.8845 10.7544Z" fill="red"/>
</svg>
