<svg width="23" height="23" viewBox="0 0 23 23" fill="none" xmlns="http://www.w3.org/2000/svg">
<path d="M1 18.6986V21.2801C1 21.471 1.07584 21.6542 1.21085 21.7892C1.34585 21.9242 1.52896 22 1.71988 22H4.30137C4.49192 22 4.67469 21.9244 4.8096 21.7898L17.0475 9.55185L13.4481 5.95246L1.2102 18.1904C1.07563 18.3253 1.00004 18.5081 1 18.6986ZM16.247 3.15357L19.8464 6.75296L21.5785 5.02094C21.8484 4.75094 22 4.3848 22 4.00303C22 3.62126 21.8484 3.25511 21.5785 2.98512L20.0149 1.42154C19.7449 1.15163 19.3787 1 18.997 1C18.6152 1 18.2491 1.15163 17.9791 1.42154L16.247 3.15357Z" stroke="#120226" stroke-width="1.70625"/>
</svg>
