<svg width="9" height="8" viewBox="0 0 9 8" fill="none" xmlns="http://www.w3.org/2000/svg">
<path d="M8.83234 6.56356L5.33438 0.488822C5.24697 0.339993 5.12218 0.216592 4.97238 0.130849C4.82259 0.0451067 4.65299 0 4.48039 0C4.30779 0 4.13818 0.0451067 3.98839 0.130849C3.83859 0.216592 3.7138 0.339993 3.62639 0.488822L0.128428 6.56356C0.0443231 6.70751 0 6.87124 0 7.03796C0 7.20468 0.0443231 7.3684 0.128428 7.51235C0.214719 7.66208 0.339294 7.78615 0.489369 7.87184C0.639444 7.95753 0.809615 8.00174 0.982419 7.99995H7.97835C8.15102 8.0016 8.32103 7.95732 8.47095 7.87164C8.62087 7.78596 8.74532 7.66196 8.83154 7.51235C8.91577 7.36847 8.96023 7.20479 8.96037 7.03807C8.96051 6.87135 8.91633 6.70758 8.83234 6.56356ZM4.16039 3.19999C4.16039 3.11513 4.1941 3.03373 4.25411 2.97372C4.31412 2.91371 4.39552 2.88 4.48039 2.88C4.56525 2.88 4.64665 2.91371 4.70666 2.97372C4.76667 3.03373 4.80038 3.11513 4.80038 3.19999V4.79998C4.80038 4.88485 4.76667 4.96624 4.70666 5.02625C4.64665 5.08626 4.56525 5.11998 4.48039 5.11998C4.39552 5.11998 4.31412 5.08626 4.25411 5.02625C4.1941 4.96624 4.16039 4.88485 4.16039 4.79998V3.19999ZM4.48039 6.71996C4.38545 6.71996 4.29265 6.69181 4.21371 6.63907C4.13478 6.58632 4.07326 6.51136 4.03693 6.42365C4.0006 6.33594 3.99109 6.23943 4.00961 6.14632C4.02813 6.05321 4.07385 5.96769 4.14098 5.90056C4.20811 5.83343 4.29363 5.78771 4.38674 5.76919C4.47985 5.75067 4.57636 5.76018 4.66407 5.79651C4.75178 5.83284 4.82674 5.89436 4.87949 5.97329C4.93223 6.05223 4.96038 6.14503 4.96038 6.23996C4.96038 6.36727 4.90981 6.48936 4.81979 6.57937C4.72978 6.66939 4.60769 6.71996 4.48039 6.71996Z" fill="#F14A58"/>
</svg>
