<svg width="32" height="32" viewBox="0 0 32 32" fill="none" xmlns="http://www.w3.org/2000/svg">
<g filter="url(#filter0_b_89_902)">
<rect x="32" y="32" width="32" height="32" rx="16" transform="rotate(180 32 32)" fill="#C5D634"/>
</g>
<path d="M16.5961 19.6478C16.6898 19.7416 16.7424 19.8687 16.7424 20.0013C16.7424 20.1338 16.6898 20.2609 16.5961 20.3547L15.9749 20.9797C15.3179 21.6363 14.427 22.005 13.4981 22.0047C12.5693 22.0044 11.6786 21.6351 11.0221 20.9781C10.3655 20.3212 9.99678 19.4302 9.99707 18.5014C9.99736 17.5726 10.3666 16.6819 11.0236 16.0253L12.5311 14.5178C13.1622 13.8863 14.0107 13.5197 14.9031 13.4933C15.7955 13.4668 16.6643 13.7823 17.3317 14.3753C17.381 14.419 17.4211 14.4719 17.4499 14.5311C17.4787 14.5903 17.4956 14.6546 17.4995 14.7203C17.5035 14.786 17.4944 14.8518 17.4729 14.914C17.4514 14.9762 17.4179 15.0336 17.3742 15.0828C17.3306 15.1321 17.2776 15.1722 17.2185 15.201C17.1593 15.2298 17.095 15.2467 17.0293 15.2506C16.9636 15.2546 16.8978 15.2455 16.8356 15.224C16.7733 15.2025 16.716 15.169 16.6667 15.1253C16.1901 14.702 15.5697 14.4768 14.9325 14.4957C14.2952 14.5147 13.6893 14.7763 13.2386 15.2272L11.7311 16.7328C11.2622 17.2018 10.9987 17.8378 10.9987 18.501C10.9987 19.1641 11.2622 19.8001 11.7311 20.2691C12.2 20.738 12.8361 21.0015 13.4992 21.0015C14.1624 21.0015 14.7984 20.738 15.2674 20.2691L15.8886 19.6478C15.935 19.6013 15.9902 19.5645 16.0509 19.5393C16.1116 19.5141 16.1767 19.5012 16.2424 19.5012C16.3081 19.5012 16.3731 19.5141 16.4338 19.5393C16.4945 19.5645 16.5497 19.6013 16.5961 19.6478ZM20.9761 11.0228C20.319 10.3672 19.4287 9.99902 18.5005 9.99902C17.5723 9.99902 16.6819 10.3672 16.0249 11.0228L15.4036 11.6447C15.3099 11.7385 15.2572 11.8657 15.2573 11.9984C15.2574 12.131 15.3101 12.2582 15.4039 12.3519C15.4977 12.4456 15.625 12.4983 15.7576 12.4982C15.8902 12.4981 16.0174 12.4454 16.1111 12.3516L16.7324 11.7303C17.2013 11.2614 17.8373 10.998 18.5005 10.998C19.1637 10.998 19.7997 11.2614 20.2686 11.7303C20.7375 12.1993 21.001 12.8353 21.001 13.4985C21.001 14.1616 20.7375 14.7976 20.2686 15.2666L18.7611 16.7753C18.3102 17.2259 17.7041 17.4873 17.0669 17.5058C16.4297 17.5244 15.8094 17.2989 15.333 16.8753C15.2837 16.8317 15.2264 16.7981 15.1642 16.7766C15.102 16.7551 15.0361 16.7461 14.9704 16.7501C14.8378 16.758 14.7137 16.8184 14.6255 16.9178C14.5818 16.9671 14.5483 17.0244 14.5268 17.0866C14.5053 17.1489 14.4963 17.2147 14.5002 17.2804C14.5082 17.4131 14.5685 17.5371 14.668 17.6253C15.3352 18.2185 16.2039 18.5343 17.0963 18.508C17.9888 18.4818 18.8374 18.1155 19.4686 17.4841L20.9761 15.9766C21.6321 15.3194 22.0005 14.4289 22.0005 13.5003C22.0005 12.5718 21.6321 11.6812 20.9761 11.0241V11.0228Z" fill="black"/>
<defs>
<filter id="filter0_b_89_902" x="-100" y="-100" width="232" height="232" filterUnits="userSpaceOnUse" color-interpolation-filters="sRGB">
<feFlood flood-opacity="0" result="BackgroundImageFix"/>
<feGaussianBlur in="BackgroundImageFix" stdDeviation="50"/>
<feComposite in2="SourceAlpha" operator="in" result="effect1_backgroundBlur_89_902"/>
<feBlend mode="normal" in="SourceGraphic" in2="effect1_backgroundBlur_89_902" result="shape"/>
</filter>
</defs>
</svg>
