<svg width="32" height="32" viewBox="0 0 32 32" fill="none" xmlns="http://www.w3.org/2000/svg">
<rect x="32" y="32" width="32" height="32" rx="16" transform="rotate(180 32 32)" fill="#C5D634"/>
<path d="M16.375 12C15.9053 12 15.4461 12.1393 15.0555 12.4003C14.665 12.6612 14.3605 13.0322 14.1808 13.4661C14.001 13.9001 13.954 14.3776 14.0456 14.8383C14.1373 15.299 14.3635 15.7222 14.6956 16.0544C15.0278 16.3865 15.451 16.6127 15.9117 16.7044C16.3724 16.796 16.8499 16.749 17.2839 16.5692C17.7178 16.3895 18.0888 16.085 18.3497 15.6945C18.6107 15.3039 18.75 14.8447 18.75 14.375C18.75 13.7451 18.4998 13.141 18.0544 12.6956C17.609 12.2502 17.0049 12 16.375 12ZM16.375 16C16.0536 16 15.7394 15.9047 15.4722 15.7261C15.205 15.5476 14.9967 15.2938 14.8737 14.9969C14.7507 14.6999 14.7185 14.3732 14.7812 14.058C14.8439 13.7428 14.9987 13.4532 15.226 13.226C15.4532 12.9987 15.7428 12.8439 16.058 12.7812C16.3732 12.7185 16.6999 12.7507 16.9969 12.8737C17.2938 12.9967 17.5476 13.205 17.7261 13.4722C17.9047 13.7394 18 14.0536 18 14.375C18 14.806 17.8288 15.2193 17.524 15.524C17.2193 15.8288 16.806 16 16.375 16ZM16.375 9C14.95 9.00165 13.5838 9.56848 12.5761 10.5761C11.5685 11.5838 11.0017 12.95 11 14.375C11 16.3069 11.8963 18.3588 13.5919 20.3088C14.3572 21.1932 15.2185 21.9898 16.16 22.6838C16.223 22.7279 16.2981 22.7515 16.375 22.7515C16.4519 22.7515 16.527 22.7279 16.59 22.6838C17.5315 21.9898 18.3928 21.1932 19.1581 20.3088C20.8538 18.3588 21.75 16.3088 21.75 14.375C21.7483 12.95 21.1815 11.5838 20.1739 10.5761C19.1662 9.56848 17.8 9.00165 16.375 9ZM16.375 21.9069C15.4375 21.1831 11.75 18.1012 11.75 14.375C11.75 13.1484 12.2373 11.972 13.1046 11.1046C13.972 10.2373 15.1484 9.75 16.375 9.75C17.6016 9.75 18.778 10.2373 19.6454 11.1046C20.5127 11.972 21 13.1484 21 14.375C21 18.1012 17.3125 21.1831 16.375 21.9069Z" fill="black"/>
</svg>
