<svg width="28" height="28" viewBox="0 0 28 28" fill="none" xmlns="http://www.w3.org/2000/svg">
<circle cx="14" cy="14" r="14" fill="#DCEC59"/>
<path d="M15.7158 14C15.7158 14.2686 15.6362 14.5311 15.4869 14.7544C15.3377 14.9777 15.1257 15.1518 14.8775 15.2545C14.6294 15.3573 14.3564 15.3842 14.093 15.3318C13.8296 15.2794 13.5876 15.1501 13.3977 14.9602C13.2078 14.7703 13.0785 14.5283 13.0261 14.2649C12.9737 14.0015 13.0006 13.7285 13.1034 13.4804C13.2061 13.2322 13.3802 13.0202 13.6035 12.871C13.8268 12.7217 14.0893 12.6421 14.3579 12.6421C14.718 12.6421 15.0634 12.7852 15.3181 13.0398C15.5727 13.2945 15.7158 13.6399 15.7158 14ZM14.3579 9.71579C14.6265 9.71579 14.889 9.63615 15.1123 9.48694C15.3356 9.33774 15.5096 9.12566 15.6124 8.87754C15.7152 8.62942 15.7421 8.35639 15.6897 8.09298C15.6373 7.82958 15.508 7.58762 15.3181 7.39772C15.1282 7.20781 14.8862 7.07849 14.6228 7.02609C14.3594 6.9737 14.0864 7.00059 13.8383 7.10336C13.5901 7.20614 13.3781 7.38019 13.2288 7.60349C13.0796 7.82679 13 8.08933 13 8.3579C13 8.71803 13.1431 9.06342 13.3977 9.31807C13.6524 9.57273 13.9978 9.71579 14.3579 9.71579ZM14.3579 18.2842C14.0893 18.2842 13.8268 18.3638 13.6035 18.5131C13.3802 18.6623 13.2061 18.8743 13.1034 19.1225C13.0006 19.3706 12.9737 19.6436 13.0261 19.907C13.0785 20.1704 13.2078 20.4124 13.3977 20.6023C13.5876 20.7922 13.8296 20.9215 14.093 20.9739C14.3564 21.0263 14.6294 20.9994 14.8775 20.8966C15.1257 20.7939 15.3377 20.6198 15.4869 20.3965C15.6362 20.1732 15.7158 19.9107 15.7158 19.6421C15.7158 19.282 15.5727 18.9366 15.3181 18.6819C15.0634 18.4273 14.718 18.2842 14.3579 18.2842Z" fill="#120226"/>
</svg>
