<svg width="30" height="30" viewBox="0 0 30 30" fill="none" xmlns="http://www.w3.org/2000/svg">
<path d="M25.4848 12.3328L16.1098 3.48514L16.0992 3.47576C15.798 3.19989 15.4044 3.04688 14.9959 3.04688C14.5875 3.04688 14.1938 3.19989 13.8926 3.47576L13.882 3.48514L4.50705 12.3328C4.34123 12.4872 4.20918 12.6742 4.11923 12.8822C4.02927 13.0901 3.98336 13.3144 3.98439 13.541V24.375C3.98439 24.8101 4.15724 25.2274 4.46492 25.5351C4.7726 25.8428 5.1899 26.0156 5.62502 26.0156H11.25C11.6851 26.0156 12.1024 25.8428 12.4101 25.5351C12.7178 25.2274 12.8906 24.8101 12.8906 24.375V18.75C12.8906 18.6878 12.9153 18.6282 12.9593 18.5843C13.0032 18.5403 13.0629 18.5156 13.125 18.5156H16.875C16.9372 18.5156 16.9968 18.5403 17.0407 18.5843C17.0847 18.6282 17.1094 18.6878 17.1094 18.75V24.375C17.1094 24.8101 17.2822 25.2274 17.5899 25.5351C17.8976 25.8428 18.3149 26.0156 18.75 26.0156H24.375C24.8101 26.0156 25.2274 25.8428 25.5351 25.5351C25.8428 25.2274 26.0156 24.8101 26.0156 24.375V13.541C26.0156 13.3138 25.9684 13.0891 25.877 12.8812C25.7857 12.6732 25.6521 12.4865 25.4848 12.3328ZM24.6094 24.375C24.6094 24.4371 24.5847 24.4968 24.5407 24.5407C24.4968 24.5847 24.4372 24.6094 24.375 24.6094H18.75C18.6879 24.6094 18.6282 24.5847 18.5843 24.5407C18.5403 24.4968 18.5156 24.4371 18.5156 24.375V18.75C18.5156 18.3149 18.3428 17.8976 18.0351 17.5899C17.7274 17.2822 17.3101 17.1094 16.875 17.1094H13.125C12.6899 17.1094 12.2726 17.2822 11.9649 17.5899C11.6572 17.8976 11.4844 18.3149 11.4844 18.75V24.375C11.4844 24.4371 11.4597 24.4968 11.4157 24.5407C11.3718 24.5847 11.3122 24.6094 11.25 24.6094H5.62502C5.56286 24.6094 5.50324 24.5847 5.45929 24.5407C5.41533 24.4968 5.39064 24.4371 5.39064 24.375V13.541C5.39057 13.5084 5.39731 13.4761 5.41043 13.4462C5.42354 13.4164 5.44275 13.3896 5.46681 13.3676L5.47736 13.3582L14.8453 4.51287C14.888 4.47562 14.9428 4.45509 14.9994 4.45509C15.0561 4.45509 15.1108 4.47562 15.1535 4.51287L24.5227 13.3594L24.532 13.3687C24.5563 13.3906 24.5758 13.4174 24.5891 13.4473C24.6024 13.4771 24.6093 13.5095 24.6094 13.5422V24.375Z" fill="#1A212B"/>
</svg>
