<svg viewBox="0 0 31 25" fill="none" xmlns="http://www.w3.org/2000/svg">
<path d="M10.3401 7.60059C10.3401 8.43392 10.0484 9.14225 9.46509 9.72559C8.88175 10.3089 8.17342 10.6006 7.34009 10.6006C6.50675 10.6006 5.79842 10.3089 5.21509 9.72559C4.63175 9.14225 4.34009 8.43392 4.34009 7.60059C4.34009 6.76725 4.63175 6.05892 5.21509 5.47559C5.79842 4.89225 6.50675 4.60059 7.34009 4.60059C8.17342 4.60059 8.88175 4.89225 9.46509 5.47559C10.0484 6.05892 10.3401 6.76725 10.3401 7.60059ZM26.3401 13.6006V20.6006H4.34009V17.6006L9.34009 12.6006L11.8401 15.1006L19.8401 7.10059L26.3401 13.6006ZM27.8401 2.60059H2.84009C2.70467 2.60059 2.58748 2.65007 2.48853 2.74902C2.38957 2.84798 2.34009 2.96517 2.34009 3.10059V22.1006C2.34009 22.236 2.38957 22.3532 2.48853 22.4521C2.58748 22.5511 2.70467 22.6006 2.84009 22.6006H27.8401C27.9755 22.6006 28.0927 22.5511 28.1916 22.4521C28.2906 22.3532 28.3401 22.236 28.3401 22.1006V3.10059C28.3401 2.96517 28.2906 2.84798 28.1916 2.74902C28.0927 2.65007 27.9755 2.60059 27.8401 2.60059ZM30.3401 3.10059V22.1006C30.3401 22.7881 30.0953 23.3766 29.6057 23.8662C29.1161 24.3558 28.5276 24.6006 27.8401 24.6006H2.84009C2.15259 24.6006 1.56405 24.3558 1.07446 23.8662C0.58488 23.3766 0.340088 22.7881 0.340088 22.1006V3.10059C0.340088 2.41309 0.58488 1.82454 1.07446 1.33496C1.56405 0.845378 2.15259 0.600586 2.84009 0.600586H27.8401C28.5276 0.600586 29.1161 0.845378 29.6057 1.33496C30.0953 1.82454 30.3401 2.41309 30.3401 3.10059Z" fill="#120226"/>
</svg>
