<svg width="17" height="17" viewBox="0 0 17 17" fill="none" xmlns="http://www.w3.org/2000/svg">
<path d="M8.55553 11.6434C9.44614 11.6434 10.3003 11.2896 10.93 10.6598C11.5598 10.0301 11.9136 9.17594 11.9136 8.28533C11.9136 7.39473 11.5598 6.5406 10.93 5.91085C10.3003 5.2811 9.44614 4.92731 8.55553 4.92731C7.66493 4.92731 6.8108 5.2811 6.18105 5.91085C5.5513 6.5406 5.19751 7.39473 5.19751 8.28533C5.19751 9.17594 5.5513 10.0301 6.18105 10.6598C6.8108 11.2896 7.66493 11.6434 8.55553 11.6434Z" stroke="#120226" stroke-width="1.27178" stroke-linecap="round" stroke-linejoin="round"/>
<path d="M1 11.6434V4.92733C1 3.81407 1.44224 2.74642 2.22943 1.95923C3.01662 1.17204 4.08428 0.729797 5.19753 0.729797H11.9136C13.0268 0.729797 14.0945 1.17204 14.8817 1.95923C15.6689 2.74642 16.1111 3.81407 16.1111 4.92733V11.6434C16.1111 12.7566 15.6689 13.8243 14.8817 14.6115C14.0945 15.3987 13.0268 15.8409 11.9136 15.8409H5.19753C4.08428 15.8409 3.01662 15.3987 2.22943 14.6115C1.44224 13.8243 1 12.7566 1 11.6434Z" stroke="#120226" stroke-width="1.27178"/>
<path d="M13.1729 3.67727L13.1819 3.66727" stroke="#120226" stroke-width="1.27178" stroke-linecap="round" stroke-linejoin="round"/>
</svg>
