<svg viewBox="0 0 19 25" fill="none" xmlns="http://www.w3.org/2000/svg">
<path d="M9.4261 14.3141C8.57846 14.3141 7.74986 14.0628 7.04508 13.5918C6.3403 13.1209 5.79099 12.4516 5.46661 11.6685C5.14224 10.8854 5.05737 10.0236 5.22273 9.19229C5.3881 8.36094 5.79627 7.5973 6.39564 6.99793C6.99501 6.39857 7.75865 5.99039 8.59 5.82503C9.42134 5.65966 10.2831 5.74453 11.0662 6.06891C11.8493 6.39328 12.5186 6.94259 12.9895 7.64738C13.4605 8.35216 13.7118 9.18076 13.7118 10.0284C13.7105 11.1646 13.2585 12.2539 12.4551 13.0573C11.6516 13.8608 10.5623 14.3127 9.4261 14.3141ZM9.4261 7.45696C8.91752 7.45696 8.42036 7.60778 7.99749 7.89033C7.57462 8.17288 7.24503 8.57448 7.05041 9.04435C6.85578 9.51422 6.80486 10.0312 6.90408 10.5301C7.0033 11.0289 7.2482 11.487 7.60782 11.8467C7.96744 12.2063 8.42563 12.4512 8.92444 12.5504C9.42324 12.6496 9.94027 12.5987 10.4101 12.4041C10.88 12.2095 11.2816 11.8799 11.5642 11.457C11.8467 11.0341 11.9975 10.537 11.9975 10.0284C11.9968 9.34662 11.7257 8.69296 11.2436 8.21087C10.7615 7.72878 10.1079 7.45764 9.4261 7.45696Z" fill="#120226"/>
<path d="M9.42858 24.6006L2.19772 16.0729C2.09725 15.9448 1.99782 15.816 1.89944 15.6863C0.664279 14.0593 -0.00298388 12.0719 1.0031e-05 10.0292C1.0031e-05 7.52854 0.993375 5.13035 2.76157 3.36215C4.52978 1.59395 6.92797 0.600586 9.42858 0.600586C11.9292 0.600586 14.3274 1.59395 16.0956 3.36215C17.8638 5.13035 18.8572 7.52854 18.8572 10.0292C18.8601 12.071 18.1932 14.0574 16.9586 15.6837L16.9577 15.6863C16.9577 15.6863 16.7006 16.024 16.662 16.0694L9.42858 24.6006ZM3.2683 14.6534C3.2683 14.6534 3.46801 14.9174 3.51344 14.974L9.42858 21.9503L15.3514 14.9646C15.3892 14.9174 15.5897 14.6517 15.5906 14.6509C16.5996 13.3215 17.1448 11.698 17.1429 10.0292C17.1429 7.9832 16.3301 6.02104 14.8834 4.57433C13.4367 3.12762 11.4745 2.31487 9.42858 2.31487C7.38263 2.31487 5.42047 3.12762 3.97376 4.57433C2.52705 6.02104 1.7143 7.9832 1.7143 10.0292C1.7125 11.6991 2.25839 13.3235 3.2683 14.6534Z" fill="#120226"/>
</svg>
