<svg width="16" height="12" viewBox="0 0 16 12" fill="none" xmlns="http://www.w3.org/2000/svg">
<path d="M15.0436 6.01873C15.0436 6.17693 14.9818 6.32865 14.8717 6.44051C14.7616 6.55238 14.6124 6.61522 14.4567 6.61522H1.54364C1.38797 6.61522 1.23867 6.55238 1.1286 6.44051C1.01852 6.32865 0.95668 6.17693 0.95668 6.01873C0.95668 5.86054 1.01852 5.70882 1.1286 5.59695C1.23867 5.48509 1.38797 5.42225 1.54364 5.42225H14.4567C14.6124 5.42225 14.7616 5.48509 14.8717 5.59695C14.9818 5.70882 15.0436 5.86054 15.0436 6.01873ZM1.54364 1.84333H14.4567C14.6124 1.84333 14.7616 1.78049 14.8717 1.66863C14.9818 1.55676 15.0436 1.40504 15.0436 1.24685C15.0436 1.08865 14.9818 0.93693 14.8717 0.825067C14.7616 0.713204 14.6124 0.65036 14.4567 0.65036H1.54364C1.38797 0.65036 1.23867 0.713204 1.1286 0.825067C1.01852 0.93693 0.95668 1.08865 0.95668 1.24685C0.95668 1.40504 1.01852 1.55676 1.1286 1.66863C1.23867 1.78049 1.38797 1.84333 1.54364 1.84333ZM14.4567 10.1941H1.54364C1.38797 10.1941 1.23867 10.257 1.1286 10.3688C1.01852 10.4807 0.95668 10.6324 0.95668 10.7906C0.95668 10.9488 1.01852 11.1005 1.1286 11.2124C1.23867 11.3243 1.38797 11.3871 1.54364 11.3871H14.4567C14.6124 11.3871 14.7616 11.3243 14.8717 11.2124C14.9818 11.1005 15.0436 10.9488 15.0436 10.7906C15.0436 10.6324 14.9818 10.4807 14.8717 10.3688C14.7616 10.257 14.6124 10.1941 14.4567 10.1941Z" fill="#1A212B"/>
</svg>
