<svg width="32" height="32" viewBox="0 0 32 32" fill="none" xmlns="http://www.w3.org/2000/svg">
<g opacity="0.5" filter="url(#filter0_b_89_849)">
<rect x="32" y="32" width="32" height="32" rx="16" transform="rotate(180 32 32)" fill="black"/>
</g>
<path d="M16 12.125C15.5303 12.125 15.0711 12.2643 14.6805 12.5253C14.29 12.7862 13.9855 13.1572 13.8058 13.5911C13.626 14.0251 13.579 14.5026 13.6706 14.9633C13.7623 15.424 13.9885 15.8472 14.3206 16.1794C14.6528 16.5115 15.076 16.7377 15.5367 16.8294C15.9974 16.921 16.4749 16.874 16.9089 16.6942C17.3428 16.5145 17.7138 16.21 17.9747 15.8195C18.2357 15.4289 18.375 14.9697 18.375 14.5C18.375 13.8701 18.1248 13.266 17.6794 12.8206C17.234 12.3752 16.6299 12.125 16 12.125ZM16 16.125C15.6786 16.125 15.3644 16.0297 15.0972 15.8511C14.83 15.6726 14.6217 15.4188 14.4987 15.1219C14.3757 14.8249 14.3435 14.4982 14.4062 14.183C14.4689 13.8678 14.6237 13.5782 14.851 13.351C15.0782 13.1237 15.3678 12.9689 15.683 12.9062C15.9982 12.8435 16.3249 12.8757 16.6219 12.9987C16.9188 13.1217 17.1726 13.33 17.3511 13.5972C17.5297 13.8644 17.625 14.1786 17.625 14.5C17.625 14.931 17.4538 15.3443 17.149 15.649C16.8443 15.9538 16.431 16.125 16 16.125ZM16 9.125C14.575 9.12665 13.2088 9.69348 12.2011 10.7011C11.1935 11.7088 10.6267 13.075 10.625 14.5C10.625 16.4319 11.5213 18.4838 13.2169 20.4338C13.9822 21.3182 14.8435 22.1148 15.785 22.8088C15.848 22.8529 15.9231 22.8765 16 22.8765C16.0769 22.8765 16.152 22.8529 16.215 22.8088C17.1565 22.1148 18.0178 21.3182 18.7831 20.4338C20.4788 18.4838 21.375 16.4338 21.375 14.5C21.3733 13.075 20.8065 11.7088 19.7989 10.7011C18.7912 9.69348 17.425 9.12665 16 9.125ZM16 22.0319C15.0625 21.3081 11.375 18.2262 11.375 14.5C11.375 13.2734 11.8623 12.097 12.7296 11.2296C13.597 10.3623 14.7734 9.875 16 9.875C17.2266 9.875 18.403 10.3623 19.2704 11.2296C20.1377 12.097 20.625 13.2734 20.625 14.5C20.625 18.2262 16.9375 21.3081 16 22.0319Z" fill="white"/>
<defs>
<filter id="filter0_b_89_849" x="-100" y="-100" width="232" height="232" filterUnits="userSpaceOnUse" color-interpolation-filters="sRGB">
<feFlood flood-opacity="0" result="BackgroundImageFix"/>
<feGaussianBlur in="BackgroundImageFix" stdDeviation="50"/>
<feComposite in2="SourceAlpha" operator="in" result="effect1_backgroundBlur_89_849"/>
<feBlend mode="normal" in="SourceGraphic" in2="effect1_backgroundBlur_89_849" result="shape"/>
</filter>
</defs>
</svg>
