<svg width="15" height="15" viewBox="0 0 15 15" fill="none" xmlns="http://www.w3.org/2000/svg">
<path d="M7.51082 0.569764C7.52542 0.734973 7.47389 0.899229 7.36753 1.02649C7.26117 1.15375 7.10866 1.23361 6.94349 1.24856C5.7586 1.35703 4.62913 1.80084 3.68736 2.52801C2.74558 3.25519 2.03047 4.23564 1.62577 5.35454C1.22107 6.47345 1.14353 7.6845 1.40223 8.84588C1.66093 10.0073 2.24516 11.0709 3.0865 11.9122C3.92785 12.7536 4.99149 13.3378 6.15287 13.5965C7.31425 13.8552 8.5253 13.7777 9.64421 13.373C10.7631 12.9683 11.7436 12.2532 12.4707 11.3114C13.1979 10.3696 13.6417 9.24015 13.7502 8.05526C13.7651 7.88985 13.8452 7.73715 13.9727 7.63075C14.0359 7.57807 14.1088 7.53834 14.1873 7.51384C14.2658 7.48933 14.3483 7.48053 14.4302 7.48793C14.5121 7.49533 14.5918 7.51879 14.6646 7.55697C14.7375 7.59515 14.8021 7.64731 14.8547 7.71046C14.9074 7.7736 14.9472 7.84651 14.9717 7.92501C14.9962 8.00351 15.005 8.08607 14.9976 8.16798C14.8679 9.59013 14.3357 10.9459 13.4632 12.0764C12.5908 13.207 11.4142 14.0655 10.0714 14.5515C8.72861 15.0375 7.27512 15.1308 5.88121 14.8204C4.48729 14.51 3.21067 13.8089 2.20089 12.7991C1.19111 11.7893 0.48997 10.5127 0.17961 9.1188C-0.130751 7.72488 -0.0374847 6.27138 0.448483 4.92857C0.934451 3.58575 1.793 2.40921 2.92356 1.53677C4.05412 0.664323 5.40987 0.132098 6.83202 0.00243481C6.99723 -0.0121717 7.16149 0.0393599 7.28875 0.145721C7.41601 0.252083 7.49587 0.404586 7.51082 0.569764ZM6.88713 3.72828C7.05321 3.72828 7.21248 3.79425 7.32991 3.91168C7.44735 4.02912 7.51332 4.18839 7.51332 4.35447V7.48543H9.3919C9.55797 7.48543 9.71725 7.5514 9.83468 7.66883C9.95212 7.78627 10.0181 7.94554 10.0181 8.11162C10.0181 8.27769 9.95212 8.43697 9.83468 8.5544C9.71725 8.67184 9.55797 8.73781 9.3919 8.73781H6.88713C6.72105 8.73781 6.56178 8.67184 6.44434 8.5544C6.32691 8.43697 6.26094 8.27769 6.26094 8.11162V4.35447C6.26094 4.18839 6.32691 4.02912 6.44434 3.91168C6.56178 3.79425 6.72105 3.72828 6.88713 3.72828ZM9.56222 0.254164C9.48244 0.229532 9.39855 0.221103 9.31546 0.229373C9.23238 0.237642 9.15179 0.262444 9.07843 0.302317C9.00508 0.342191 8.94044 0.396333 8.88831 0.461556C8.83619 0.52678 8.79763 0.601769 8.77492 0.682113C8.7522 0.762456 8.74578 0.846531 8.75603 0.929392C8.76629 1.01225 8.79301 1.09223 8.83463 1.16461C8.87624 1.23699 8.93192 1.30032 8.99837 1.35087C9.06482 1.40142 9.14071 1.43817 9.22157 1.45896C9.90663 1.65308 10.5453 1.95991 11.1139 2.36067C11.2498 2.45103 11.4155 2.4848 11.5758 2.45481C11.7362 2.42483 11.8785 2.33344 11.9725 2.20011C12.0665 2.06678 12.1048 1.90203 12.0791 1.74092C12.0535 1.57981 11.966 1.43506 11.8353 1.33748C11.1439 0.851088 10.3755 0.484843 9.56222 0.254164ZM13.6613 3.16345C13.5656 3.0276 13.4199 2.93531 13.2562 2.9069C13.0925 2.87848 12.9242 2.91625 12.7884 3.01191C12.6525 3.10757 12.5602 3.25328 12.5318 3.41698C12.5177 3.49804 12.5198 3.58108 12.5378 3.66135C12.5558 3.74162 12.5895 3.81756 12.6368 3.88482C13.0376 4.45341 13.3457 5.09212 13.5385 5.77718C13.5609 5.85637 13.5987 5.93037 13.6496 5.99498C13.7006 6.05958 13.7638 6.11351 13.8356 6.15369C13.9074 6.19387 13.9864 6.21951 14.0682 6.22915C14.1499 6.23879 14.2327 6.23224 14.3119 6.20987C14.3911 6.18751 14.4651 6.14976 14.5297 6.09879C14.5943 6.04782 14.6482 5.98463 14.6884 5.91282C14.7286 5.841 14.7542 5.76198 14.7639 5.68026C14.7735 5.59854 14.7669 5.51572 14.7446 5.43653C14.5139 4.6233 14.1477 3.85482 13.6613 3.16345Z" fill="#111111"/>
</svg>
