<svg width="18" height="11" viewBox="0 0 18 11" fill="none" xmlns="http://www.w3.org/2000/svg">
<path d="M4.84216 1.3389C4.84216 0.647421 4.00356 0.294324 3.5107 0.787189L0.215127 4.08276C0.146933 4.15081 0.0928298 4.23165 0.0559154 4.32064C0.019001 4.40963 0 4.50502 0 4.60137C0 4.69771 0.019001 4.79311 0.0559154 4.8821C0.0928298 4.97109 0.146933 5.05192 0.215127 5.11998L3.5107 8.41555C4.00356 8.91577 4.84216 8.56267 4.84216 7.87119C4.84216 7.66522 4.76125 7.4666 4.61412 7.31948L1.89969 4.60505L4.61412 1.89062C4.76125 1.74349 4.84216 1.54488 4.84216 1.3389ZM9.25587 2.39819V1.22856C9.25587 0.573859 8.46141 0.242831 7.99797 0.70627L4.62148 4.08276C4.55328 4.15081 4.49918 4.23165 4.46227 4.32064C4.42535 4.40963 4.40635 4.50502 4.40635 4.60137C4.40635 4.69771 4.42535 4.79311 4.46227 4.8821C4.49918 4.97109 4.55328 5.05192 4.62148 5.11998L7.99797 8.49647C8.46141 8.95991 9.25587 8.62888 9.25587 7.97418V6.73834C12.934 6.73834 15.5086 7.91533 17.3477 10.49C16.6121 6.8119 14.4052 3.13381 9.25587 2.39819Z" fill="#728197"/>
</svg>
