<svg width="75" height="75" viewBox="0 0 75 75" fill="none" xmlns="http://www.w3.org/2000/svg">
<path d="M37.5 6.25C20.2687 6.25 6.25 20.2687 6.25 37.5C6.25 54.7312 20.2687 68.75 37.5 68.75C54.7312 68.75 68.75 54.7312 68.75 37.5C68.75 20.2687 54.7312 6.25 37.5 6.25ZM37.5 62.5C23.7156 62.5 12.5 51.2844 12.5 37.5C12.5 23.7156 23.7156 12.5 37.5 12.5C51.2844 12.5 62.5 23.7156 62.5 37.5C62.5 51.2844 51.2844 62.5 37.5 62.5Z" fill="#06A33A"/>
<path d="M31.2469 42.4594L24.0625 35.2875L19.65 39.7125L31.2531 51.2906L52.2094 30.3344L47.7906 25.9156L31.2469 42.4594Z" fill="#06A33A"/>
</svg>
