<svg width="15" height="16" viewBox="0 0 15 16" fill="none" xmlns="http://www.w3.org/2000/svg">
<path d="M13.5997 10.8628V7.36845C13.5997 4.36552 13.5997 2.86546 12.6771 1.93238C11.7545 1 10.2692 1 7.29985 1C4.32982 1 2.84516 1 1.92258 1.93238C1 2.86546 1 4.36692 1 7.36845V10.8635C1 13.0306 1 14.1149 1.51379 14.5881C1.75878 14.8142 2.06818 14.9563 2.39787 14.9941C3.08875 15.0732 3.89583 14.3592 5.50929 12.9319C6.22328 12.3012 6.57957 11.9855 6.99186 11.9029C7.19486 11.8609 7.40485 11.8609 7.60785 11.9029C8.02084 11.9855 8.37713 12.3012 9.09041 12.9319C10.7039 14.3592 11.511 15.0732 12.2018 14.9934C12.5308 14.9563 12.8409 14.8142 13.0859 14.5881C13.5997 14.1149 13.5997 13.0306 13.5997 10.8628Z" stroke="#111111"/>
<path d="M9.39985 3.79993H5.19995" stroke="#111111" stroke-linecap="round"/>
</svg>
