<svg width="22" height="25" viewBox="0 0 22 25" fill="none" xmlns="http://www.w3.org/2000/svg">
<path d="M16.7721 16.0304C16.2004 16.0302 15.6345 16.1447 15.1078 16.3672C14.5812 16.5897 14.1045 16.9156 13.7061 17.3256L8.76753 14.1514C9.156 13.1552 9.156 12.0494 8.76753 11.0532L13.7061 7.87905C14.4479 8.63892 15.4455 9.09629 16.5053 9.16247C17.5652 9.22864 18.6119 8.89892 19.4424 8.23723C20.273 7.57553 20.8283 6.629 21.0007 5.58115C21.173 4.5333 20.9501 3.45878 20.3752 2.56592C19.8004 1.67306 18.9144 1.02546 17.8892 0.748692C16.864 0.47192 15.7725 0.585687 14.8264 1.06794C13.8803 1.55019 13.1469 2.36657 12.7685 3.35879C12.3901 4.35102 12.3936 5.4484 12.7784 6.43818L7.8398 9.61237C7.2451 9.00183 6.48184 8.5825 5.64759 8.40798C4.81333 8.23347 3.94599 8.31171 3.15643 8.63269C2.36687 8.95367 1.69097 9.50282 1.21512 10.2099C0.739276 10.917 0.485107 11.75 0.485107 12.6023C0.485107 13.4546 0.739276 14.2876 1.21512 14.9947C1.69097 15.7018 2.36687 16.2509 3.15643 16.5719C3.94599 16.8929 4.81333 16.9711 5.64759 16.7966C6.48184 16.6221 7.2451 16.2028 7.8398 15.5922L12.7784 18.7664C12.4475 19.6197 12.3986 20.5565 12.6387 21.4397C12.8788 22.3228 13.3953 23.1059 14.1127 23.6742C14.83 24.2425 15.7105 24.5663 16.6251 24.598C17.5397 24.6297 18.4405 24.3678 19.1955 23.8506C19.9505 23.3333 20.5201 22.5879 20.8208 21.7236C21.1216 20.8592 21.1377 19.9212 20.8668 19.0471C20.5959 18.1729 20.0522 17.4084 19.3154 16.8656C18.5786 16.3227 17.6873 16.03 16.7721 16.0304ZM16.7721 2.31806C17.2806 2.31806 17.7777 2.46885 18.2005 2.75136C18.6233 3.03387 18.9529 3.43542 19.1474 3.90522C19.342 4.37502 19.393 4.89197 19.2938 5.39071C19.1946 5.88944 18.9497 6.34756 18.5901 6.70713C18.2305 7.0667 17.7724 7.31157 17.2737 7.41078C16.775 7.50998 16.258 7.45907 15.7882 7.26447C15.3184 7.06987 14.9169 6.74033 14.6343 6.31752C14.3518 5.89471 14.201 5.39763 14.201 4.88912C14.201 4.20723 14.4719 3.55327 14.9541 3.0711C15.4363 2.58894 16.0902 2.31806 16.7721 2.31806ZM4.77381 15.1734C4.26531 15.1734 3.76822 15.0226 3.34541 14.7401C2.9226 14.4575 2.59306 14.056 2.39846 13.5862C2.20387 13.1164 2.15295 12.5994 2.25216 12.1007C2.35136 11.602 2.59623 11.1439 2.9558 10.7843C3.31537 10.4247 3.77349 10.1798 4.27222 10.0806C4.77096 9.98144 5.28792 10.0324 5.75772 10.227C6.22752 10.4215 6.62906 10.7511 6.91157 11.1739C7.19408 11.5967 7.34487 12.0938 7.34487 12.6023C7.34487 13.2842 7.074 13.9381 6.59183 14.4203C6.10966 14.9025 5.4557 15.1734 4.77381 15.1734ZM16.7721 22.8865C16.2636 22.8865 15.7665 22.7358 15.3437 22.4532C14.9209 22.1707 14.5913 21.7692 14.3967 21.2994C14.2022 20.8296 14.1512 20.3126 14.2504 19.8139C14.3496 19.3152 14.5945 18.857 14.9541 18.4975C15.3137 18.1379 15.7718 17.893 16.2705 17.7938C16.7692 17.6946 17.2862 17.7455 17.756 17.9401C18.2258 18.1347 18.6273 18.4643 18.9099 18.8871C19.1924 19.3099 19.3432 19.807 19.3432 20.3155C19.3432 20.9974 19.0723 21.6513 18.5901 22.1335C18.1079 22.6157 17.454 22.8865 16.7721 22.8865Z" fill="#120226"/>
</svg>
