<svg width="14" height="16" viewBox="0 0 14 16" fill="none" xmlns="http://www.w3.org/2000/svg">
<path d="M8.13599 11.1016L8.501 11.3362L8.8034 11.025C9.00776 10.8147 9.25224 10.6475 9.52237 10.5334C9.79249 10.4193 10.0828 10.3606 10.376 10.3607H10.3764C10.8461 10.3605 11.3035 10.5107 11.6817 10.7893C12.0599 11.0679 12.339 11.4603 12.478 11.909C12.617 12.3577 12.6088 12.8391 12.4544 13.2827C12.3001 13.7264 12.0077 14.109 11.6202 14.3745C11.2327 14.6399 10.7704 14.7744 10.3009 14.7581C9.83147 14.7418 9.37957 14.5756 9.01138 14.2839C8.6432 13.9922 8.37808 13.5903 8.25485 13.137C8.13162 12.6838 8.15675 12.2029 8.32655 11.765L8.48316 11.361L8.11873 11.1268L4.97244 9.10458L4.60786 8.87025L4.30547 9.18071C4.00023 9.49407 3.60848 9.7093 3.18029 9.79887C2.7521 9.88844 2.30693 9.84828 1.90168 9.68354C1.49643 9.51879 1.14951 9.23693 0.905283 8.874C0.66105 8.51107 0.530596 8.08355 0.530596 7.64609C0.530596 7.20864 0.66105 6.78112 0.905282 6.41819C1.14951 6.05525 1.49643 5.7734 1.90168 5.60865C2.30693 5.4439 2.7521 5.40375 3.18029 5.49332L3.28893 4.97396L3.18029 5.49332C3.60848 5.58289 4.00023 5.79811 4.30547 6.11148L4.60786 6.42194L4.97244 6.18761L8.11873 4.16539L8.48348 3.93095L8.32639 3.5268C8.12892 3.01879 8.12712 2.45554 8.32133 1.94627C8.51555 1.437 8.89194 1.01799 9.37755 0.77047C9.86315 0.52295 10.4234 0.464557 10.9496 0.606613C11.4758 0.74867 11.9305 1.08105 12.2256 1.53932C12.5206 1.99759 12.635 2.5491 12.5466 3.08692C12.4581 3.62474 12.1731 4.11056 11.7468 4.45018C11.3205 4.7898 10.7833 4.95903 10.2393 4.92507C9.69529 4.8911 9.1833 4.65635 8.80255 4.26634L8.50016 3.95658L8.13599 4.19064L4.98971 6.21286L4.62454 6.44756L4.78225 6.85198C4.9814 7.36266 4.9814 7.92953 4.78225 8.4402L4.62454 8.84463L4.98971 9.07933L8.13599 11.1016ZM8.57307 3.93695L9.01424 3.64217L8.57307 3.93695C8.81135 4.29357 9.15004 4.57152 9.54629 4.73566C9.94255 4.89979 10.3786 4.94274 10.7992 4.85906C11.2199 4.77539 11.6063 4.56885 11.9096 4.26557C12.2129 3.96229 12.4194 3.57588 12.5031 3.15522C12.5868 2.73456 12.5438 2.29853 12.3797 1.90228C12.2155 1.50602 11.9376 1.16733 11.581 0.929048C11.2243 0.690762 10.8051 0.563577 10.3762 0.563577C9.80103 0.563577 9.24944 0.792052 8.84276 1.19874C8.43607 1.60543 8.2076 2.15701 8.2076 2.73215C8.2076 3.16106 8.33478 3.58033 8.57307 3.93695ZM1.52747 9.4492L1.82225 9.00803L1.52747 9.4492C1.88409 9.68749 2.30336 9.81467 2.73226 9.81467C3.30741 9.81467 3.85899 9.5862 4.26568 9.17951C4.67237 8.77282 4.90084 8.22124 4.90084 7.64609C4.90084 7.21719 4.77365 6.79792 4.53537 6.4413C4.29708 6.08468 3.9584 5.80673 3.56214 5.64259C3.16589 5.47846 2.72986 5.43551 2.3092 5.51919C1.88853 5.60286 1.50213 5.8094 1.19885 6.11268C0.895568 6.41596 0.689032 6.80236 0.605357 7.22303C0.521682 7.64369 0.564627 8.07972 0.728761 8.47597C0.892895 8.87223 1.17085 9.21091 1.52747 9.4492ZM11.9096 14.0935L11.5344 13.7183L11.9096 14.0934C12.3163 13.6868 12.5447 13.1352 12.5447 12.56C12.5447 12.1311 12.4176 11.7119 12.1793 11.3552C11.941 10.9986 11.6023 10.7207 11.206 10.5565C10.8098 10.3924 10.3738 10.3495 9.9531 10.4331C9.53244 10.5168 9.14604 10.7233 8.84276 11.0266C8.53948 11.3299 8.33294 11.7163 8.24926 12.137C8.16559 12.5576 8.20853 12.9937 8.37267 13.3899C8.5368 13.7862 8.81475 14.1249 9.17138 14.3631C9.528 14.6014 9.94727 14.7286 10.3762 14.7286C10.9513 14.7286 11.5029 14.5001 11.9096 14.0935Z" fill="#120226" stroke="#120226" stroke-width="1.06119"/>
</svg>
