<svg width="12" height="12" viewBox="0 0 12 12" fill="none" xmlns="http://www.w3.org/2000/svg">
<path d="M11.5786 0.65368V9.15152C11.5786 9.32488 11.5108 9.49115 11.3902 9.61374C11.2696 9.73633 11.106 9.80519 10.9354 9.80519C10.7648 9.80519 10.6012 9.73633 10.4805 9.61374C10.3599 9.49115 10.2921 9.32488 10.2921 9.15152V2.2315L1.09868 11.575C0.977987 11.6977 0.814286 11.7666 0.643594 11.7666C0.472902 11.7666 0.309202 11.6977 0.188504 11.575C0.067807 11.4524 0 11.286 0 11.1126C0 10.9391 0.067807 10.7727 0.188504 10.6501L9.38277 1.30736H2.5733C2.40271 1.30736 2.2391 1.23849 2.11847 1.1159C1.99784 0.993312 1.93007 0.827046 1.93007 0.65368C1.93007 0.480313 1.99784 0.314047 2.11847 0.191458C2.2391 0.0688698 2.40271 0 2.5733 0H10.9354C11.106 0 11.2696 0.0688698 11.3902 0.191458C11.5108 0.314047 11.5786 0.480313 11.5786 0.65368Z" fill="#8E52DA"/>
</svg>
