<svg width="13" height="13" viewBox="0 0 13 13" fill="none" xmlns="http://www.w3.org/2000/svg">
<circle cx="6.5" cy="6.5" r="6.5" fill="#DCEC59"/>
<path d="M7.42857 3.87268V3.64286C7.42857 3.47236 7.36084 3.30885 7.24028 3.18829C7.11972 3.06773 6.95621 3 6.78571 3H5.92857C5.75808 3 5.59456 3.06773 5.474 3.18829C5.35344 3.30885 5.28571 3.47236 5.28571 3.64286V3.87268C4.92895 3.92468 4.60278 4.10324 4.36674 4.37576C4.1307 4.64829 4.00054 4.99661 4 5.35714V8.57143C4 8.68509 4.04515 8.7941 4.12553 8.87447C4.2059 8.95485 4.31491 9 4.42857 9H8.28571C8.39938 9 8.50839 8.95485 8.58876 8.87447C8.66913 8.7941 8.71429 8.68509 8.71429 8.57143V5.35714C8.71375 4.99661 8.58358 4.64829 8.34754 4.37576C8.1115 4.10324 7.78534 3.92468 7.42857 3.87268ZM5.92857 3.42857H6.78571C6.84255 3.42857 6.89705 3.45115 6.93724 3.49133C6.97742 3.53152 7 3.58603 7 3.64286V3.85714H5.71429V3.64286C5.71429 3.58603 5.73686 3.53152 5.77705 3.49133C5.81723 3.45115 5.87174 3.42857 5.92857 3.42857ZM7.42857 7.07143H5.28571V6.85714C5.28571 6.80031 5.30829 6.74581 5.34848 6.70562C5.38866 6.66543 5.44317 6.64286 5.5 6.64286H7.21429C7.27112 6.64286 7.32562 6.66543 7.36581 6.70562C7.406 6.74581 7.42857 6.80031 7.42857 6.85714V7.07143ZM5.28571 7.5H6.57143V7.71429C6.57143 7.77112 6.594 7.82562 6.63419 7.86581C6.67438 7.906 6.72888 7.92857 6.78571 7.92857C6.84255 7.92857 6.89705 7.906 6.93724 7.86581C6.97742 7.82562 7 7.77112 7 7.71429V7.5H7.42857V8.57143H5.28571V7.5ZM8.28571 8.57143H7.85714V6.85714C7.85714 6.68665 7.78941 6.52313 7.66885 6.40257C7.5483 6.28202 7.38478 6.21429 7.21429 6.21429H5.5C5.3295 6.21429 5.16599 6.28202 5.04543 6.40257C4.92487 6.52313 4.85714 6.68665 4.85714 6.85714V8.57143H4.42857V5.35714C4.42857 5.07298 4.54145 4.80046 4.74239 4.59953C4.94332 4.3986 5.21584 4.28571 5.5 4.28571H7.21429C7.49845 4.28571 7.77097 4.3986 7.9719 4.59953C8.17283 4.80046 8.28571 5.07298 8.28571 5.35714V8.57143ZM7 5.14286C7 5.19969 6.97742 5.25419 6.93724 5.29438C6.89705 5.33457 6.84255 5.35714 6.78571 5.35714H5.92857C5.87174 5.35714 5.81723 5.33457 5.77705 5.29438C5.73686 5.25419 5.71429 5.19969 5.71429 5.14286C5.71429 5.08602 5.73686 5.03152 5.77705 4.99133C5.81723 4.95115 5.87174 4.92857 5.92857 4.92857H6.78571C6.84255 4.92857 6.89705 4.95115 6.93724 4.99133C6.97742 5.03152 7 5.08602 7 5.14286Z" fill="#120226"/>
</svg>
