<svg width="14" height="14" viewBox="0 0 14 14" fill="none" xmlns="http://www.w3.org/2000/svg">
<circle cx="7" cy="7" r="7" fill="#8E52DA"/>
<path d="M10.7686 6.99953V6.99765C10.7686 5.88232 10.283 4.88069 9.51199 4.19189L9.50822 4.18875C9.4987 4.17849 9.48806 4.16932 9.4765 4.16143L9.47587 4.16111C8.79105 3.5598 7.91039 3.22901 6.99906 3.23078C6.04678 3.23078 5.17742 3.58445 4.51472 4.16802L4.5188 4.16457C4.51081 4.17063 4.50345 4.17747 4.49682 4.18498C4.09842 4.53776 3.77953 4.97149 3.56126 5.45682C3.343 5.94215 3.23035 6.46832 3.23078 7.00048C3.23078 8.11549 3.71571 9.11712 4.48614 9.80623L4.48991 9.80937C4.49988 9.82069 4.51104 9.8309 4.5232 9.83984L4.52383 9.84015C5.20846 10.4406 6.08846 10.7709 6.99906 10.7692C7.91392 10.7706 8.79769 10.4373 9.48372 9.83199L9.47964 9.83544C9.88494 9.48305 10.2098 9.04772 10.4323 8.55888C10.6548 8.07005 10.7697 7.53913 10.7692 7.00205V6.99985L10.7686 6.99953ZM9.3672 9.451C9.1805 9.29997 8.97972 9.16723 8.76763 9.05462L8.74721 9.04457C8.93974 8.48957 9.05563 7.84977 9.06663 7.18422V7.17919H10.4049C10.3598 8.04024 9.98918 8.85197 9.36814 9.45006L9.3672 9.451ZM7.17934 8.97829C7.5823 8.99997 7.95888 9.08854 8.30625 9.23271L8.28363 9.22454C8.00536 9.859 7.61371 10.295 7.17934 10.3908V8.97829ZM7.17934 8.61898V7.17919H8.70827C8.69614 7.77541 8.59276 8.36626 8.40173 8.93118L8.41398 8.89004C8.02404 8.72976 7.60931 8.63816 7.18814 8.61929L7.17966 8.61898H7.17934ZM7.17934 6.81988V5.38009C7.61188 5.36035 8.0377 5.26566 8.43785 5.10024L8.41303 5.10935C8.58735 5.61786 8.69445 6.20395 8.70827 6.81328V6.81988H7.17934ZM7.17934 5.02077V3.60894C7.61371 3.70474 8.00536 4.13881 8.28363 4.77516C7.95888 4.91021 7.5823 4.99847 7.18845 5.02046L7.17934 5.02077ZM8.07572 3.76442C8.44581 3.88787 8.79193 4.074 9.09898 4.3147L9.09175 4.30905C8.95262 4.41835 8.79652 4.52137 8.63195 4.61089L8.61436 4.61968C8.48137 4.30582 8.29852 4.01552 8.07289 3.76002L8.07572 3.76348V3.76442ZM6.81941 3.60989V5.02077C6.432 5.00101 6.05084 4.91496 5.6925 4.76636L5.71512 4.77453C5.99465 4.14007 6.38567 3.70443 6.82004 3.60863L6.81941 3.60989ZM5.38471 4.61874C5.21446 4.52714 5.05224 4.42133 4.89978 4.30245L4.90731 4.30811C5.20541 4.07447 5.54072 3.89269 5.89917 3.77039L5.92304 3.76316C5.70331 4.01174 5.52428 4.2935 5.39256 4.59801L5.38471 4.61874ZM6.82004 5.37978V6.81956H5.29112C5.30493 6.20363 5.41203 5.61754 5.5986 5.06789L5.58635 5.10903C5.97613 5.26905 6.39063 5.36054 6.81156 5.37946L6.82004 5.37978ZM6.82004 7.17888V8.61866C6.3875 8.6384 5.96168 8.73309 5.56154 8.89852L5.58635 8.88941C5.41203 8.38121 5.30493 7.79481 5.29112 7.18547V7.17888H6.82004ZM6.82004 8.97798V10.3898C6.38567 10.294 5.99402 9.85994 5.71575 9.2236C6.0405 9.08854 6.41708 9.00059 6.81093 8.97861L6.82004 8.97798ZM5.92492 10.2343C5.55492 10.1112 5.20881 9.92554 4.90166 9.68531L4.9092 9.69096C5.04833 9.58166 5.20443 9.47864 5.36901 9.38912L5.38659 9.38033C5.51847 9.69432 5.70132 9.98436 5.92775 10.2387L5.92492 10.2356V10.2343ZM8.61467 9.38001C8.79683 9.47895 8.95293 9.58166 9.0996 9.6963L9.09207 9.69065C8.79397 9.92428 8.45866 10.1061 8.10021 10.2284L8.07634 10.2356C8.29606 9.98713 8.4751 9.70547 8.60682 9.40106L8.61467 9.38064V9.38001ZM10.4049 6.81988H9.06663C9.057 6.17001 8.94485 5.52574 8.73433 4.91084L8.74721 4.95419C8.96907 4.83737 9.17912 4.69936 9.37442 4.5421L9.36688 4.54776C9.98664 5.14359 10.3574 5.95231 10.4043 6.81077L10.4049 6.81988ZM4.63218 4.54807C4.81309 4.69506 5.0163 4.82981 5.23176 4.94445L5.25217 4.9545C5.05964 5.5095 4.94375 6.1493 4.93275 6.81485V6.81988H3.59416C3.63929 5.95883 4.00989 5.1471 4.63093 4.54901L4.63218 4.54807ZM3.59448 7.17919H4.93275C4.94238 7.82906 5.05453 8.47333 5.26505 9.08823L5.25217 9.04488C5.0163 9.1702 4.81341 9.30495 4.62496 9.45697L4.6325 9.45131C4.01274 8.85548 3.64202 8.04676 3.5951 7.1883L3.59479 7.17951L3.59448 7.17919Z" fill="white"/>
</svg>
