<svg width="31" height="30" viewBox="0 0 31 30" fill="none" xmlns="http://www.w3.org/2000/svg">
<path d="M15.0928 3.04688C12.7287 3.04687 10.4177 3.74791 8.45198 5.06134C6.4863 6.37477 4.95423 8.24159 4.04953 10.4257C3.14483 12.6099 2.90812 15.0133 3.36933 17.3319C3.83054 19.6506 4.96897 21.7805 6.64064 23.4521C8.31232 25.1238 10.4422 26.2622 12.7608 26.7234C15.0795 27.1847 17.4829 26.948 19.667 26.0432C21.8512 25.1385 23.718 23.6065 25.0314 21.6408C26.3449 19.6751 27.0459 17.3641 27.0459 15C27.0422 11.831 25.7816 8.79281 23.5408 6.55198C21.3 4.31114 18.2618 3.0506 15.0928 3.04688ZM8.46465 23.2031C9.1523 22.0597 10.1241 21.1136 11.2855 20.4568C12.4469 19.8 13.7585 19.4548 15.0928 19.4548C16.4271 19.4548 17.7387 19.8 18.9001 20.4568C20.0615 21.1136 21.0333 22.0597 21.7209 23.2031C19.8463 24.7232 17.5062 25.5528 15.0928 25.5528C12.6793 25.5528 10.3392 24.7232 8.46465 23.2031ZM11.1084 14.0625C11.1084 13.2745 11.3421 12.5041 11.7799 11.8489C12.2177 11.1937 12.84 10.683 13.568 10.3814C14.2961 10.0798 15.0972 10.0009 15.8701 10.1547C16.643 10.3084 17.3529 10.6879 17.9102 11.2451C18.4674 11.8023 18.8469 12.5123 19.0006 13.2852C19.1543 14.0581 19.0754 14.8592 18.7739 15.5873C18.4723 16.3153 17.9616 16.9376 17.3064 17.3754C16.6512 17.8132 15.8808 18.0469 15.0928 18.0469C14.0361 18.0469 13.0226 17.6271 12.2754 16.8799C11.5282 16.1327 11.1084 15.1192 11.1084 14.0625ZM22.7697 22.2234C21.665 20.5056 20.0136 19.2102 18.0822 18.5461C19.0453 17.9046 19.7764 16.9703 20.1675 15.8812C20.5585 14.7921 20.5887 13.6061 20.2536 12.4985C19.9185 11.391 19.2359 10.4206 18.3067 9.73095C17.3775 9.04129 16.2511 8.66893 15.094 8.66893C13.9368 8.66893 12.8104 9.04129 11.8812 9.73095C10.952 10.4206 10.2694 11.391 9.9343 12.4985C9.5992 13.6061 9.62941 14.7921 10.0204 15.8812C10.4115 16.9703 11.1426 17.9046 12.1057 18.5461C10.1743 19.2102 8.52293 20.5056 7.41817 22.2234C6.00586 20.7247 5.0632 18.8453 4.7065 16.8171C4.3498 14.7889 4.59466 12.7007 5.41087 10.81C6.22708 8.91933 7.57894 7.30898 9.29965 6.17761C11.0204 5.04625 13.0346 4.44338 15.094 4.44338C17.1533 4.44338 19.1675 5.04625 20.8883 6.17761C22.609 7.30898 23.9608 8.91933 24.777 10.81C25.5932 12.7007 25.8381 14.7889 25.4814 16.8171C25.1247 18.8453 24.182 20.7247 22.7697 22.2234Z" fill="#1A212B"/>
</svg>
