<svg width="25" height="24" viewBox="0 0 25 24" fill="none" xmlns="http://www.w3.org/2000/svg">
<g clip-path="url(#clip0_336_125)">
<path d="M3.33325 12C3.33325 13.1819 3.56604 14.3522 4.01834 15.4442C4.47063 16.5361 5.13356 17.5282 5.96929 18.364C6.80502 19.1997 7.79717 19.8626 8.8891 20.3149C9.98103 20.7672 11.1514 21 12.3333 21C13.5151 21 14.6855 20.7672 15.7774 20.3149C16.8693 19.8626 17.8615 19.1997 18.6972 18.364C19.5329 17.5282 20.1959 16.5361 20.6482 15.4442C21.1005 14.3522 21.3333 13.1819 21.3333 12C21.3333 10.8181 21.1005 9.64778 20.6482 8.55585C20.1959 7.46392 19.5329 6.47177 18.6972 5.63604C17.8615 4.80031 16.8693 4.13738 15.7774 3.68508C14.6855 3.23279 13.5151 3 12.3333 3C11.1514 3 9.98103 3.23279 8.8891 3.68508C7.79717 4.13738 6.80502 4.80031 5.96929 5.63604C5.13356 6.47177 4.47063 7.46392 4.01834 8.55585C3.56604 9.64778 3.33325 10.8181 3.33325 12Z" stroke="#908C84" stroke-width="1.5" stroke-linecap="round" stroke-linejoin="round"/>
<path d="M9.33325 10C9.33325 10.7956 9.64932 11.5587 10.2119 12.1213C10.7745 12.6839 11.5376 13 12.3333 13C13.1289 13 13.892 12.6839 14.4546 12.1213C15.0172 11.5587 15.3333 10.7956 15.3333 10C15.3333 9.20435 15.0172 8.44129 14.4546 7.87868C13.892 7.31607 13.1289 7 12.3333 7C11.5376 7 10.7745 7.31607 10.2119 7.87868C9.64932 8.44129 9.33325 9.20435 9.33325 10Z" stroke="#908C84" stroke-width="1.5" stroke-linecap="round" stroke-linejoin="round"/>
<path d="M6.50122 18.849C6.74873 18.0252 7.25519 17.3032 7.94547 16.79C8.63574 16.2768 9.47307 15.9997 10.3332 16H14.3332C15.1945 15.9997 16.0328 16.2774 16.7236 16.7918C17.4144 17.3062 17.9207 18.0298 18.1672 18.855" stroke="#908C84" stroke-width="1.5" stroke-linecap="round" stroke-linejoin="round"/>
</g>
<defs>
<clipPath id="clip0_336_125">
<rect width="24" height="24" fill="white" transform="translate(0.333252)"/>
</clipPath>
</defs>
</svg>
