<svg width="28" height="25" viewBox="0 0 28 25" fill="none" xmlns="http://www.w3.org/2000/svg">
<path d="M26.8361 20.2913L16.3422 2.06705C16.08 1.62056 15.7056 1.25036 15.2563 0.993134C14.8069 0.735906 14.2981 0.600586 13.7803 0.600586C13.2625 0.600586 12.7537 0.735906 12.3043 0.993134C11.8549 1.25036 11.4805 1.62056 11.2183 2.06705L0.724395 20.2913C0.47208 20.7231 0.339111 21.2143 0.339111 21.7145C0.339111 22.2146 0.47208 22.7058 0.724395 23.1376C0.983269 23.5868 1.35699 23.959 1.80722 24.2161C2.25744 24.4732 2.76795 24.6058 3.28637 24.6004H24.2742C24.7922 24.6054 25.3022 24.4725 25.752 24.2155C26.2017 23.9585 26.5751 23.5865 26.8337 23.1376C27.0864 22.706 27.2198 22.2149 27.2202 21.7148C27.2206 21.2146 27.0881 20.7233 26.8361 20.2913ZM12.8203 10.2006C12.8203 9.94596 12.9214 9.70179 13.1014 9.52175C13.2815 9.34172 13.5257 9.24058 13.7803 9.24058C14.0349 9.24058 14.279 9.34172 14.4591 9.52175C14.6391 9.70179 14.7403 9.94596 14.7403 10.2006V15.0005C14.7403 15.2551 14.6391 15.4993 14.4591 15.6793C14.279 15.8594 14.0349 15.9605 13.7803 15.9605C13.5257 15.9605 13.2815 15.8594 13.1014 15.6793C12.9214 15.4993 12.8203 15.2551 12.8203 15.0005V10.2006ZM13.7803 20.7605C13.4955 20.7605 13.2171 20.676 12.9803 20.5178C12.7434 20.3596 12.5589 20.1347 12.4499 19.8715C12.3409 19.6084 12.3124 19.3189 12.3679 19.0396C12.4235 18.7602 12.5607 18.5036 12.762 18.3023C12.9634 18.1009 13.22 17.9637 13.4993 17.9082C13.7787 17.8526 14.0682 17.8811 14.3313 17.9901C14.5944 18.0991 14.8193 18.2837 14.9776 18.5205C15.1358 18.7573 15.2203 19.0357 15.2203 19.3205C15.2203 19.7024 15.0685 20.0687 14.7985 20.3387C14.5284 20.6088 14.1622 20.7605 13.7803 20.7605Z" fill="#1A212B"/>
</svg>
