<svg width="23" height="26" viewBox="0 0 23 26" fill="none" xmlns="http://www.w3.org/2000/svg">
<g filter="url(#filter0_d_130_1416)">
<path d="M17.4091 16.7539C16.8247 16.7537 16.2468 16.8771 15.7133 17.1159C15.1799 17.3547 14.703 17.7036 14.3138 18.1397L8.9654 14.7021C9.19622 14.1767 9.3154 13.6091 9.3154 13.0352C9.3154 12.4613 9.19622 11.8937 8.9654 11.3683L14.3138 7.93066C15.0116 8.70898 15.977 9.1958 17.0177 9.29409C18.0584 9.39238 19.0979 9.09492 19.9291 8.46099C20.7602 7.82706 21.322 6.90323 21.5024 5.8736C21.6828 4.84397 21.4686 3.78417 20.9025 2.90541C20.3364 2.02665 19.46 1.39347 18.4479 1.13207C17.4358 0.870659 16.3624 1.00022 15.4415 1.49493C14.5207 1.98964 13.8201 2.81317 13.4793 3.80139C13.1386 4.7896 13.1827 5.86993 13.6029 6.82706L8.25446 10.2647C7.69334 9.63722 6.95492 9.1949 6.1369 8.99628C5.31888 8.79767 4.45983 8.85212 3.67344 9.15245C2.88705 9.45277 2.21038 9.9848 1.73299 10.6781C1.25561 11.3715 1 12.1934 1 13.0352C1 13.877 1.25561 14.6989 1.73299 15.3922C2.21038 16.0856 2.88705 16.6176 3.67344 16.9179C4.45983 17.2183 5.31888 17.2727 6.1369 17.0741C6.95492 16.8755 7.69334 16.4332 8.25446 15.8057L13.6029 19.2433C13.2439 20.0634 13.1592 20.9775 13.3616 21.8496C13.5639 22.7217 14.0425 23.5051 14.726 24.0833C15.4095 24.6615 16.2614 25.0036 17.1549 25.0586C18.0485 25.1136 18.9359 24.8786 19.6852 24.3886C20.4344 23.8985 21.0054 23.1797 21.3132 22.339C21.621 21.4983 21.649 20.5807 21.3933 19.7228C21.1375 18.8648 20.6115 18.1124 19.8937 17.5775C19.1758 17.0425 18.3044 16.7537 17.4091 16.7539ZM17.4091 2.31644C17.9716 2.31644 18.5214 2.48322 18.9891 2.7957C19.4567 3.10817 19.8212 3.5523 20.0364 4.07193C20.2517 4.59156 20.308 5.16334 20.1983 5.71498C20.0885 6.26661 19.8177 6.77332 19.42 7.17102C19.0223 7.56873 18.5156 7.83957 17.9639 7.9493C17.4123 8.05902 16.8405 8.00271 16.3209 7.78747C15.8013 7.57223 15.3571 7.20774 15.0447 6.74009C14.7322 6.27244 14.5654 5.72263 14.5654 5.16019C14.5654 4.40598 14.865 3.68266 15.3983 3.14935C15.9316 2.61605 16.6549 2.31644 17.4091 2.31644ZM5.15915 15.8789C4.59671 15.8789 4.0469 15.7122 3.57925 15.3997C3.11159 15.0872 2.7471 14.6431 2.53187 14.1234C2.31663 13.6038 2.26031 13.032 2.37004 12.4804C2.47977 11.9288 2.75061 11.4221 3.14831 11.0244C3.54602 10.6266 4.05273 10.3558 4.60436 10.2461C5.15599 10.1364 5.72778 10.1927 6.24741 10.4079C6.76703 10.6231 7.21117 10.9876 7.52364 11.4553C7.83612 11.9229 8.0029 12.4727 8.0029 13.0352C8.0029 13.7894 7.70329 14.5127 7.16998 15.046C6.63668 15.5793 5.91336 15.8789 5.15915 15.8789ZM17.4091 23.7539C16.8467 23.7539 16.2969 23.5872 15.8292 23.2747C15.3616 22.9622 14.9971 22.5181 14.7819 21.9984C14.5666 21.4788 14.5103 20.907 14.62 20.3554C14.7298 19.8038 15.0006 19.2971 15.3983 18.8994C15.796 18.5016 16.3027 18.2308 16.8544 18.1211C17.406 18.0114 17.9778 18.0677 18.4974 18.2829C19.017 18.4981 19.4612 18.8626 19.7736 19.3303C20.0861 19.7979 20.2529 20.3477 20.2529 20.9102C20.2529 21.2836 20.1793 21.6534 20.0364 21.9984C19.8935 22.3435 19.6841 22.657 19.42 22.921C19.1559 23.1851 18.8424 23.3946 18.4974 23.5375C18.1524 23.6804 17.7826 23.7539 17.4091 23.7539Z" fill="white"/>
</g>
<defs>
<filter id="filter0_d_130_1416" x="0.5" y="0.5" width="21.5664" height="25.0664" filterUnits="userSpaceOnUse" color-interpolation-filters="sRGB">
<feFlood flood-opacity="0" result="BackgroundImageFix"/>
<feColorMatrix in="SourceAlpha" type="matrix" values="0 0 0 0 0 0 0 0 0 0 0 0 0 0 0 0 0 0 127 0" result="hardAlpha"/>
<feOffset/>
<feGaussianBlur stdDeviation="0.25"/>
<feComposite in2="hardAlpha" operator="out"/>
<feColorMatrix type="matrix" values="0 0 0 0 0 0 0 0 0 0 0 0 0 0 0 0 0 0 0.6 0"/>
<feBlend mode="normal" in2="BackgroundImageFix" result="effect1_dropShadow_130_1416"/>
<feBlend mode="normal" in="SourceGraphic" in2="effect1_dropShadow_130_1416" result="shape"/>
</filter>
</defs>
</svg>
