<svg width="32" height="32" viewBox="0 0 32 32" fill="none" xmlns="http://www.w3.org/2000/svg">
<g filter="url(#filter0_b_116_14360)">
<rect x="32" y="32" width="32" height="32" rx="16" transform="rotate(180 32 32)" fill="white"/>
</g>
<path d="M20.875 11.5V13.5C20.875 13.5995 20.8355 13.6948 20.7652 13.7652C20.6948 13.8355 20.5995 13.875 20.5 13.875C20.4005 13.875 20.3052 13.8355 20.2348 13.7652C20.1645 13.6948 20.125 13.5995 20.125 13.5V11.875H16.375V20.125H18C18.0995 20.125 18.1948 20.1645 18.2652 20.2348C18.3355 20.3052 18.375 20.4005 18.375 20.5C18.375 20.5995 18.3355 20.6948 18.2652 20.7652C18.1948 20.8355 18.0995 20.875 18 20.875H14C13.9005 20.875 13.8052 20.8355 13.7348 20.7652C13.6645 20.6948 13.625 20.5995 13.625 20.5C13.625 20.4005 13.6645 20.3052 13.7348 20.2348C13.8052 20.1645 13.9005 20.125 14 20.125H15.625V11.875H11.875V13.5C11.875 13.5995 11.8355 13.6948 11.7652 13.7652C11.6948 13.8355 11.5995 13.875 11.5 13.875C11.4005 13.875 11.3052 13.8355 11.2348 13.7652C11.1645 13.6948 11.125 13.5995 11.125 13.5V11.5C11.125 11.4005 11.1645 11.3052 11.2348 11.2348C11.3052 11.1645 11.4005 11.125 11.5 11.125H20.5C20.5995 11.125 20.6948 11.1645 20.7652 11.2348C20.8355 11.3052 20.875 11.4005 20.875 11.5Z" fill="black"/>
<defs>
<filter id="filter0_b_116_14360" x="-100" y="-100" width="232" height="232" filterUnits="userSpaceOnUse" color-interpolation-filters="sRGB">
<feFlood flood-opacity="0" result="BackgroundImageFix"/>
<feGaussianBlur in="BackgroundImageFix" stdDeviation="50"/>
<feComposite in2="SourceAlpha" operator="in" result="effect1_backgroundBlur_116_14360"/>
<feBlend mode="normal" in="SourceGraphic" in2="effect1_backgroundBlur_116_14360" result="shape"/>
</filter>
</defs>
</svg>
