<svg width="28" height="28" viewBox="0 0 28 28" fill="none" xmlns="http://www.w3.org/2000/svg">
<g filter="url(#filter0_d_130_1419)">
<path d="M10.0026 13.4162C9.68382 13.4162 9.41115 13.3029 9.18463 13.0764C8.96649 12.8499 8.85742 12.573 8.85742 12.2458C8.85742 11.9354 8.96649 11.6669 9.18463 11.4404C9.41115 11.2138 9.68382 11.1006 10.0026 11.1006C10.3298 11.1006 10.6067 11.2138 10.8332 11.4404C11.0598 11.6669 11.173 11.9354 11.173 12.2458C11.173 12.573 11.0598 12.8499 10.8332 13.0764C10.6067 13.3029 10.3298 13.4162 10.0026 13.4162Z" fill="white"/>
<path d="M14.8448 13.4162C14.526 13.4162 14.2534 13.3029 14.0268 13.0764C13.8087 12.8499 13.6996 12.573 13.6996 12.2458C13.6996 11.9354 13.8087 11.6669 14.0268 11.4404C14.2534 11.2138 14.526 11.1006 14.8448 11.1006C15.172 11.1006 15.4489 11.2138 15.6754 11.4404C15.902 11.6669 16.0152 11.9354 16.0152 12.2458C16.0152 12.573 15.902 12.8499 15.6754 13.0764C15.4489 13.3029 15.172 13.4162 14.8448 13.4162Z" fill="white"/>
<path d="M19.687 13.4162C19.3682 13.4162 19.0956 13.3029 18.869 13.0764C18.6509 12.8499 18.5418 12.573 18.5418 12.2458C18.5418 11.9354 18.6509 11.6669 18.869 11.4404C19.0956 11.2138 19.3682 11.1006 19.687 11.1006C20.0142 11.1006 20.2911 11.2138 20.5176 11.4404C20.7442 11.6669 20.8574 11.9354 20.8574 12.2458C20.8574 12.573 20.7442 12.8499 20.5176 13.0764C20.2911 13.3029 20.0142 13.4162 19.687 13.4162Z" fill="white"/>
<path d="M16.6667 22.8577C21.2757 22.8577 23.5808 22.8577 25.012 21.3347C26.4444 19.8131 26.4444 17.3623 26.4444 12.462C26.4444 7.5618 26.4444 5.11103 25.012 3.58937C23.5808 2.06641 21.2757 2.06641 16.6667 2.06641H11.7778C7.16878 2.06641 4.86367 2.06641 3.43244 3.58937C2 5.11103 2 7.5618 2 12.462C2 17.3623 2 19.8131 3.43244 21.3347C4.23056 22.1846 5.3 22.5601 6.88889 22.7251" stroke="white" stroke-width="1.41723" stroke-linecap="round" stroke-linejoin="round"/>
<path d="M16.6667 22.8574C15.1561 22.8574 13.4914 23.5071 11.9722 24.3453C9.53019 25.6928 8.30919 26.3672 7.70786 25.9371C7.10652 25.5083 7.22019 24.1763 7.44874 21.5137L7.50008 20.9082" stroke="white" stroke-width="1.41723" stroke-linecap="round"/>
</g>
<defs>
<filter id="filter0_d_130_1419" x="0.791016" y="0.857422" width="26.8623" height="26.417" filterUnits="userSpaceOnUse" color-interpolation-filters="sRGB">
<feFlood flood-opacity="0" result="BackgroundImageFix"/>
<feColorMatrix in="SourceAlpha" type="matrix" values="0 0 0 0 0 0 0 0 0 0 0 0 0 0 0 0 0 0 127 0" result="hardAlpha"/>
<feOffset/>
<feGaussianBlur stdDeviation="0.25"/>
<feComposite in2="hardAlpha" operator="out"/>
<feColorMatrix type="matrix" values="0 0 0 0 0 0 0 0 0 0 0 0 0 0 0 0 0 0 0.6 0"/>
<feBlend mode="normal" in2="BackgroundImageFix" result="effect1_dropShadow_130_1419"/>
<feBlend mode="normal" in="SourceGraphic" in2="effect1_dropShadow_130_1419" result="shape"/>
</filter>
</defs>
</svg>
