<svg width="18" height="18" viewBox="0 0 18 18" fill="none" xmlns="http://www.w3.org/2000/svg">
<path d="M13.7812 0H4.21875C1.8888 0 0 1.8888 0 4.21875V13.7812C0 16.1112 1.8888 18 4.21875 18H13.7812C16.1112 18 18 16.1112 18 13.7812V4.21875C18 1.8888 16.1112 0 13.7812 0Z" fill="url(#paint0_radial_1267_330)"/>
<path d="M13.7812 0H4.21875C1.8888 0 0 1.8888 0 4.21875V13.7812C0 16.1112 1.8888 18 4.21875 18H13.7812C16.1112 18 18 16.1112 18 13.7812V4.21875C18 1.8888 16.1112 0 13.7812 0Z" fill="url(#paint1_radial_1267_330)"/>
<path d="M9.03188 1.96875C7.12234 1.96875 6.88264 1.97712 6.13269 2.01122C5.38414 2.04553 4.87318 2.16401 4.42613 2.33789C3.96362 2.51747 3.57134 2.75773 3.18055 3.14866C2.7894 3.53953 2.54914 3.9318 2.369 4.39411C2.19463 4.8413 2.07601 5.35247 2.04233 6.10066C2.00879 6.85069 2 7.09045 2 9.00007C2 10.9097 2.00844 11.1486 2.04247 11.8986C2.07692 12.6471 2.1954 13.1581 2.36914 13.6051C2.54886 14.0676 2.78912 14.4599 3.18005 14.8507C3.57078 15.2419 3.96305 15.4827 4.42522 15.6622C4.87262 15.8361 5.38365 15.9546 6.13205 15.9889C6.88208 16.023 7.12156 16.0314 9.03104 16.0314C10.9408 16.0314 11.1797 16.023 11.9297 15.9889C12.6782 15.9546 13.1897 15.8361 13.6371 15.6622C14.0994 15.4827 14.4912 15.2419 14.8818 14.8507C15.273 14.4599 15.5131 14.0676 15.6934 13.6053C15.8662 13.1581 15.9849 12.647 16.02 11.8987C16.0537 11.1488 16.0625 10.9097 16.0625 9.00007C16.0625 7.09045 16.0537 6.85083 16.02 6.1008C15.9849 5.35226 15.8662 4.84137 15.6934 4.39432C15.5131 3.9318 15.273 3.53953 14.8818 3.14866C14.4907 2.75759 14.0996 2.51733 13.6367 2.33796C13.1885 2.16401 12.6772 2.04546 11.9287 2.01122C11.1787 1.97712 10.9399 1.96875 9.0297 1.96875H9.03188ZM8.40111 3.23585C8.58835 3.23557 8.79725 3.23585 9.03188 3.23585C10.9093 3.23585 11.1318 3.2426 11.8731 3.27628C12.5587 3.30764 12.9308 3.42218 13.1786 3.51844C13.5068 3.64584 13.7407 3.79821 13.9867 4.04437C14.2328 4.29047 14.3851 4.52482 14.5128 4.85297C14.6091 5.10047 14.7238 5.47256 14.755 6.15811C14.7886 6.89934 14.796 7.12195 14.796 8.99845C14.796 10.875 14.7886 11.0976 14.755 11.8388C14.7236 12.5243 14.6091 12.8964 14.5128 13.144C14.3854 13.4722 14.2328 13.7058 13.9867 13.9518C13.7406 14.1979 13.5069 14.3501 13.1786 14.4776C12.9311 14.5743 12.5587 14.6886 11.8731 14.7199C11.1319 14.7536 10.9093 14.7609 9.03188 14.7609C7.1544 14.7609 6.93186 14.7536 6.1907 14.7199C5.50515 14.6883 5.13305 14.5737 4.88499 14.4775C4.55691 14.35 4.32249 14.1977 4.0764 13.9516C3.8303 13.7055 3.67801 13.4717 3.55025 13.1434C3.45399 12.8959 3.33931 12.5238 3.30809 11.8382C3.27441 11.097 3.26766 10.8744 3.26766 8.9967C3.26766 7.11907 3.27441 6.89759 3.30809 6.15635C3.33945 5.4708 3.45399 5.09871 3.55025 4.85086C3.67773 4.52271 3.8303 4.28836 4.07647 4.04227C4.32256 3.79617 4.55691 3.6438 4.88506 3.51612C5.13291 3.41944 5.50515 3.30518 6.1907 3.27368C6.83933 3.24436 7.0907 3.23557 8.40111 3.23409V3.23585ZM12.7852 4.40332C12.3193 4.40332 11.9414 4.7809 11.9414 5.24679C11.9414 5.71261 12.3193 6.09054 12.7852 6.09054C13.251 6.09054 13.6289 5.71261 13.6289 5.24679C13.6289 4.78097 13.251 4.40304 12.7852 4.40304V4.40332ZM9.03188 5.38917C7.03782 5.38917 5.42105 7.00594 5.42105 9.00007C5.42105 10.9942 7.03782 12.6102 9.03188 12.6102C11.026 12.6102 12.6422 10.9942 12.6422 9.00007C12.6422 7.00601 11.0259 5.38917 9.03174 5.38917H9.03188ZM9.03188 6.65627C10.3263 6.65627 11.3757 7.70555 11.3757 9.00007C11.3757 10.2945 10.3263 11.3439 9.03188 11.3439C7.73743 11.3439 6.68816 10.2945 6.68816 9.00007C6.68816 7.70555 7.73743 6.65627 9.03188 6.65627Z" fill="white"/>
<defs>
<radialGradient id="paint0_radial_1267_330" cx="0" cy="0" r="1" gradientUnits="userSpaceOnUse" gradientTransform="translate(4.78125 19.3864) rotate(-90) scale(17.8393 16.592)">
<stop stop-color="#FFDD55"/>
<stop offset="0.1" stop-color="#FFDD55"/>
<stop offset="0.5" stop-color="#FF543E"/>
<stop offset="1" stop-color="#C837AB"/>
</radialGradient>
<radialGradient id="paint1_radial_1267_330" cx="0" cy="0" r="1" gradientUnits="userSpaceOnUse" gradientTransform="translate(-3.01507 1.29663) rotate(78.681) scale(7.97428 32.8702)">
<stop stop-color="#3771C8"/>
<stop offset="0.128" stop-color="#3771C8"/>
<stop offset="1" stop-color="#6600FF" stop-opacity="0"/>
</radialGradient>
</defs>
</svg>
