<svg width="24" height="24" viewBox="0 0 24 24" fill="none" xmlns="http://www.w3.org/2000/svg">
<path d="M12 0C9.62663 0 7.30655 0.703788 5.33316 2.02236C3.35977 3.34094 1.8217 5.21508 0.913451 7.4078C0.00519922 9.60051 -0.232441 12.0133 0.230582 14.3411C0.693605 16.6689 1.83649 18.807 3.51472 20.4853C5.19295 22.1635 7.33115 23.3064 9.65892 23.7694C11.9867 24.2324 14.3995 23.9948 16.5922 23.0865C18.7849 22.1783 20.6591 20.6402 21.9776 18.6668C23.2962 16.6934 24 14.3734 24 12C23.9965 8.81847 22.7311 5.76826 20.4814 3.51858C18.2317 1.2689 15.1815 0.00349392 12 0ZM22.5168 15.36H16.9788C17.3804 13.138 17.3804 10.862 16.9788 8.64H22.5168C23.2144 10.8257 23.2144 13.1743 22.5168 15.36ZM12 23.04C11.9372 23.04 11.8751 23.0268 11.8176 23.0014C11.7602 22.976 11.7087 22.9389 11.6664 22.8924C10.0284 21.1284 8.844 18.846 8.2092 16.32H15.7908C15.156 18.846 13.9716 21.1284 12.3336 22.8924C12.2913 22.9389 12.2398 22.976 12.1824 23.0014C12.1249 23.0268 12.0628 23.04 12 23.04ZM7.998 15.36C7.57401 13.1401 7.57401 10.8599 7.998 8.64H16.002C16.426 10.8599 16.426 13.1401 16.002 15.36H7.998ZM12 0.96C12.0628 0.960025 12.1249 0.973166 12.1824 0.998582C12.2398 1.024 12.2913 1.06113 12.3336 1.1076C13.9716 2.8716 15.156 5.16 15.7908 7.68H8.2092C8.844 5.16 10.0284 2.8716 11.6664 1.1076C11.7087 1.06113 11.7602 1.024 11.8176 0.998582C11.8751 0.973166 11.9372 0.960025 12 0.96ZM22.1592 7.68H16.7772C16.188 5.1924 15.0972 2.9136 13.578 1.0728C15.4543 1.34741 17.2287 2.09916 18.7312 3.25605C20.2338 4.41293 21.4141 5.93621 22.1592 7.68ZM10.422 1.0728C8.9064 2.9136 7.812 5.1924 7.2228 7.68H1.84081C2.58591 5.93621 3.76625 4.41293 5.26877 3.25605C6.7713 2.09916 8.54569 1.34741 10.422 1.0728ZM1.48321 8.64H7.0212C6.6196 10.862 6.6196 13.138 7.0212 15.36H1.48321C0.785619 13.1743 0.785619 10.8257 1.48321 8.64ZM1.84321 16.32H7.2228C7.812 18.8076 8.9028 21.0864 10.422 22.9272C8.54569 22.6526 6.7713 21.9008 5.26877 20.7439C3.76625 19.5871 2.58591 18.0638 1.84081 16.32H1.84321ZM13.5804 22.9272C15.096 21.0864 16.1904 18.8076 16.7796 16.32H22.1616C21.4163 18.0641 20.2356 19.5876 18.7326 20.7445C17.2296 21.9014 15.4547 22.653 13.578 22.9272H13.5804Z" fill="#FC5A30"/>
</svg>
