<svg width="22" height="18" viewBox="0 0 22 18" fill="none" xmlns="http://www.w3.org/2000/svg">
<path d="M21.5145 2.78887C21.3883 2.24983 21.1421 1.7584 20.8005 1.36352C20.4589 0.968641 20.0338 0.684091 19.5675 0.538205C17.8602 0 10.989 0 10.989 0C10.989 0 4.11752 0.0162911 2.41026 0.554496C1.94391 0.700391 1.51877 0.984956 1.17716 1.37985C0.835553 1.77475 0.589405 2.2662 0.463227 2.80526C-0.0531797 6.31164 -0.253503 11.6545 0.477407 15.0207C0.603598 15.5597 0.849752 16.0511 1.19136 16.446C1.53296 16.8409 1.9581 17.1254 2.42444 17.2713C4.1317 17.8095 11.003 17.8095 11.003 17.8095C11.003 17.8095 17.8743 17.8095 19.5815 17.2713C20.0478 17.1254 20.473 16.8409 20.8146 16.446C21.1562 16.0511 21.4024 15.5597 21.5286 15.0207C22.0733 11.5093 22.2411 6.16968 21.5145 2.78887Z" fill="#FF0000"/>
<path d="M8.38086 12.5748L14.8939 8.80231L8.38086 5.02985V12.5748Z" fill="white"/>
</svg>
